<?xml version="1.0" encoding="UTF-8" standalone="no"?>
<svg
   xmlns:dc="http://purl.org/dc/elements/1.1/"
   xmlns:cc="http://creativecommons.org/ns#"
   xmlns:rdf="http://www.w3.org/1999/02/22-rdf-syntax-ns#"
   xmlns:svg="http://www.w3.org/2000/svg"
   xmlns="http://www.w3.org/2000/svg"
   xmlns:sodipodi="http://sodipodi.sourceforge.net/DTD/sodipodi-0.dtd"
   xmlns:inkscape="http://www.inkscape.org/namespaces/inkscape"
   version="1.1"
   id="svg2"
   xml:space="preserve"
   width="755.90497"
   height="151.18098"
   viewBox="0 0 755.90497 151.18098"
   sodipodi:docname="after_eight.svg"
   inkscape:version="1.0.2 (e86c870879, 2021-01-15)"><metadata
     id="metadata8"><rdf:RDF><cc:Work
         rdf:about=""><dc:format>image/svg+xml</dc:format><dc:type
           rdf:resource="http://purl.org/dc/dcmitype/StillImage" /><dc:title></dc:title></cc:Work></rdf:RDF></metadata><defs
     id="defs6" /><sodipodi:namedview
     pagecolor="#ffffff"
     bordercolor="#666666"
     borderopacity="1"
     objecttolerance="10"
     gridtolerance="10"
     guidetolerance="10"
     inkscape:pageopacity="0"
     inkscape:pageshadow="2"
     inkscape:window-width="2560"
     inkscape:window-height="1376"
     id="namedview4"
     showgrid="false"
     inkscape:zoom="0.6332956"
     inkscape:cx="277.74655"
     inkscape:cy="149.51601"
     inkscape:window-x="0"
     inkscape:window-y="0"
     inkscape:window-maximized="1"
     inkscape:current-layer="g10" /><g
     id="g10"
     inkscape:groupmode="layer"
     inkscape:label="after_eight"
     transform="matrix(1.3333333,0,0,-1.3333333,-17.333333,636)"><path
       d="M 579.9277,363.6143 H 13 V 477 h 566.9277 z"
       style="fill:#000000;fill-opacity:1;fill-rule:nonzero;stroke:none"
       id="path12" /><path
       d="M 75.7559,464.3657 88.5996,380.1162 H 65.6934 l -1.2051,15.125 h -8.1231 l -1.2343,-15.125 H 31.9746 l 11.4688,84.2495 H 75.7559 M 63.8262,410.2412 c -1.0664,9.4785 -2.1836,21.2774 -3.3516,35.3984 -2.2187,-16.1953 -3.6504,-27.9941 -4.2969,-35.3984 z"
       style="fill:#ffffff;fill-opacity:1;fill-rule:nonzero;stroke:none"
       id="path14" /><path
       d="m 95.1558,464.3657 h 37.875 v -16.8745 h -15.5 v -16 h 13.75 v -16 h -13.75 v -35.375 h -22.375 z"
       style="fill:#ffffff;fill-opacity:1;fill-rule:nonzero;stroke:none"
       id="path16" /><path
       d="m 189.0898,464.3657 v -16.8745 h -13.375 v -67.375 h -22.375 v 67.375 h -13.25 v 16.8745 z"
       style="fill:#ffffff;fill-opacity:1;fill-rule:nonzero;stroke:none"
       id="path18" /><path
       d="m 195.2788,464.3657 h 37.375 v -16.8745 h -15 v -16 h 14 v -16 h -14 v -18.5 h 16.375 v -16.875 h -38.75 z"
       style="fill:#ffffff;fill-opacity:1;fill-rule:nonzero;stroke:none"
       id="path20" /><path
       d="m 241.1001,464.3657 h 15.8516 c 10.5664,0 17.7187,-0.4004 21.4609,-1.1972 3.7422,-0.7989 6.791,-2.8379 9.1504,-6.1192 2.3574,-3.2812 3.5371,-8.5019 3.5371,-15.6655 0,-6.5625 -0.834,-10.9707 -2.502,-13.2227 -1.6679,-2.2519 -4.9492,-3.5898 -9.8457,-4.0156 4.4336,-1.1016 7.4141,-2.5508 8.9414,-4.3457 1.5254,-1.7949 2.4747,-3.4473 2.8477,-4.957 0.3711,-1.5098 0.5586,-5.6758 0.5586,-12.4981 v -22.2285 h -20.75 v 27.9805 c 0,4.5469 -0.3672,7.3535 -1.1016,8.4199 -0.7343,1.0664 -2.6582,1.5996 -5.7734,1.5996 v -38 h -22.375 v 84.2495 m 22.375,-14.375 v -18.7495 c 2.543,0 4.3242,0.3457 5.3437,1.0391 1.0196,0.6914 1.5313,2.8847 1.5313,6.5781 v 4.6348 c 0,2.6621 -0.4922,4.4096 -1.4766,5.2456 -0.9843,0.834 -2.7851,1.2519 -5.3984,1.2519 z"
       style="fill:#ffffff;fill-opacity:1;fill-rule:nonzero;stroke:none"
       id="path22" /><path
       d="m 318.9902,464.3657 h 37.375 v -16.8745 h -15 v -16 h 14 v -16 h -14 v -18.5 h 16.375 v -16.875 h -38.75 z"
       style="fill:#ffffff;fill-opacity:1;fill-rule:nonzero;stroke:none"
       id="path24" /><path
       d="m 386.6426,464.3657 v -84.2495 h -22.375 v 84.2495 z"
       style="fill:#ffffff;fill-opacity:1;fill-rule:nonzero;stroke:none"
       id="path26" /><path
       d="m 447.0313,433.3662 h -22.375 v 7.6016 c 0,4.8203 -0.2149,7.8413 -0.6407,9.0639 -0.4258,1.2227 -1.4394,1.834 -3.0371,1.834 -1.3867,0 -2.3301,-0.5234 -2.8262,-1.5703 -0.498,-1.0469 -0.746,-3.7143 -0.746,-8.0034 v -40.4219 c 0,-3.7578 0.246,-6.2402 0.7402,-7.4453 0.4922,-1.207 1.4785,-1.8086 2.959,-1.8086 1.6211,0 2.7207,0.6738 3.3027,2.0254 0.582,1.3516 0.8731,4 0.8731,7.9473 v 10.0273 h -4.5 v 12.75 h 26.25 v -45.25 h -14.1114 l -2.0761,6.0137 c -1.5235,-2.5899 -3.4454,-4.5313 -5.7657,-5.8242 -2.3203,-1.293 -5.0566,-1.9395 -8.209,-1.9395 -3.7558,0 -7.2714,0.8887 -10.5468,2.6621 -3.2774,1.7735 -5.7657,3.9844 -7.4649,6.6289 -1.7011,2.6446 -2.7636,5.4121 -3.1894,8.3047 -0.4258,2.8926 -0.6367,7.2324 -0.6367,13.0195 v 25.0254 c 0,8.0586 0.4414,13.9058 1.3281,17.5445 0.8867,3.6386 3.4297,6.9765 7.6308,10.0117 4.1993,3.0351 9.6328,4.5527 16.2969,4.5527 6.5567,0 11.9981,-1.3144 16.3223,-3.9414 4.3242,-2.6269 7.1426,-5.75 8.4551,-9.3711 1.3105,-3.6211 1.9668,-8.894 1.9668,-15.8159 z"
       style="fill:#ffffff;fill-opacity:1;fill-rule:nonzero;stroke:none"
       id="path28" /><path
       d="m 507.2246,464.3657 v -84.2495 h -22.375 v 35.375 h -6.75 v -35.375 h -22.375 v 84.2495 h 22.375 v -30.1245 h 6.75 v 30.1245 z"
       style="fill:#ffffff;fill-opacity:1;fill-rule:nonzero;stroke:none"
       id="path30" /><path
       d="m 562.4316,464.3657 v -16.8745 h -13.375 v -67.375 h -22.375 v 67.375 h -13.25 v 16.8745 z"
       style="fill:#ffffff;fill-opacity:1;fill-rule:nonzero;stroke:none"
       id="path32" /></g></svg>
