<?xml version="1.0" encoding="UTF-8" standalone="no"?>
<!-- Created with Inkscape (http://www.inkscape.org/) -->
<svg xmlns:dc="http://purl.org/dc/elements/1.1/" xmlns:cc="http://creativecommons.org/ns#" xmlns:rdf="http://www.w3.org/1999/02/22-rdf-syntax-ns#" xmlns:svg="http://www.w3.org/2000/svg" xmlns="http://www.w3.org/2000/svg" version="1.1" width="423.50668" height="442" viewBox="0 0 423.50668 442" id="svg2" xml:space="preserve"><metadata id="metadata8"><rdf:RDF><cc:Work rdf:about=""><dc:format>image/svg+xml</dc:format><dc:type rdf:resource="http://purl.org/dc/dcmitype/StillImage"/><dc:title/></cc:Work></rdf:RDF></metadata><defs id="defs6"/><g transform="matrix(1.3333333,0,0,-1.3333333,0,441.99999)" id="g10"><g transform="scale(0.1,0.1)" id="g12"><path d="m 197.71484,47.71875 c -7.56623,3.832514 -10.68091,13.910772 3.00196,26.134766 -9.07334,-5.185334 -20.55335,3.532073 -12.91602,12.441406 l -18.65039,0 c -0.38267,-1.901333 -0.93929,-4.779474 -1.50195,-7.994141 4.01066,-2.892 11.1724,-8.720312 11.3164,-10.320312 0.20534,-2.262667 -10.08789,-14.90625 -10.08789,-14.90625 -2.304,-2.176 -5.64348,-2.186969 -7.27148,-3.542969 -0.65333,-0.546667 -0.30615,-5.996636 -0.0234,-10.917969 4.62533,-6.089333 5.13001,-14.641963 1.38867,-17.779297 -14.55733,-6.159999 -15.22461,11.029297 -15.22461,11.029297 0,0 -3.63291,1.002766 -3.90625,2.634766 -0.27066,1.628 4.44851,0.897417 4.58204,1.71875 0.13466,0.812 0.23828,3.148437 0.23828,3.148437 0,0 1.62919,0.817464 4.75586,-2.033203 -1.22134,3.937333 -4.21289,4.751953 -4.2129,4.751953 0,0 0.71258,2.557756 1.39258,3.232422 0.68134,0.684 3.80962,-1.627698 4.48828,0.542969 0.18134,0.590667 -4.53233,4.134521 -6.50586,5.117187 -1.97333,0.980019 -8.21756,19.172865 -7.60156,21.019532 0.30934,0.932 2.99633,6.146088 5.59766,11.107422 -0.22133,1.196 -0.42042,2.275406 -0.59375,3.191406 l -8.94141,0 c -1.45466,-13.522666 -5.71277,-34.034833 -8.3789,-35.4375 -2.8176,-1.489333 -8.01828,-0.747672 -8.31055,-3.263672 -0.29787,-2.525333 4.1524,-1.935141 4.89453,-3.119141 0.74373,-1.189333 0.29897,-3.115953 0.14844,-4.751953 -0.14894,-1.638666 -3.41471,-0.294234 -6.82617,-5.490234 4.00786,2.670666 6.3789,1.929687 6.3789,1.929687 L 125.0957,30.8125 c 0,0 5.93759,-0.739625 6.08399,-2.515625 0.14946,-1.782667 -5.04151,-2.673807 -4.89258,-3.119141 0.15053,-0.444 1.66157,-12.764953 -6.79883,-11.876953 -15.58387,1.78 -3.5916,31.022969 -5.82226,33.542969 -2.22294,2.524 -3.26297,1.637625 -5.04883,3.265625 -1.70054,1.566667 -6.39612,21.228214 -3.01172,36.185547 l -11.722658,0 0,11.677734 C 84.055746,84.092657 82.007753,68.519375 81.126953,62.359375 79.620686,27.718043 71.889949,17.072656 71.791016,15.972656 c -0.09893,-1.108 12.30255,-8.3857479 10.09375,-10.0937498 -2.213067,-1.7106666 -8.890625,6.4746098 -8.890625,6.4746098 0,0 6.524684,-9.5880245 4.521484,-10.6933598 -2.009333,-1.10266564 -6.630859,9.1835938 -6.630859,9.1835938 0,0 3.411983,-10.63922396 0.90625,-10.83789062 C 69.276882,-0.1968073 67.873047,11.150391 67.873047,11.150391 c 0,0 -1.606682,-9.5367868 -3.916016,-8.4394535 -2.311466,1.108 0.603516,10.8496095 0.603516,10.8496095 0,0 -8.786803,-1.156073 -8.283203,2.558594 0.5016,3.717333 10.99414,1.052734 10.99414,1.052734 0,0 6.223782,12.352011 6.925782,17.777344 0.705333,5.422666 3.815864,29.144619 -2.105469,25.001953 -5.917733,-4.138667 -2.433432,-31.916016 -11.083985,-31.916016 -8.653199,0 -9.939453,10.324219 -9.939453,10.324219 0,0 -5.057128,-0.20363 -5.736328,1.845703 -0.687466,2.048 5.236328,3.519531 5.236328,3.519531 l 1.033203,7.080079 c 10e-7,0 3.416872,-0.686068 7.513672,-4.552735 -2.048933,6.370667 -6.605468,7.509766 -6.605468,7.509766 0,0 -0.225782,3.872328 1.824218,5.236328 2.050534,1.368 10.015625,-3.638672 10.015625,-3.638672 0,0 0.457228,7.966377 -0.451171,9.789063 -0.910953,1.821333 -12.855167,6.777343 -15.8125,6.777343 -2.959353,0 -13.333985,-11.332031 -13.333985,-11.332031 0,0 0.234231,-1.073276 0.457031,-2.474609 0.286,-0.01333 0.863832,-0.01463 1.207032,0.109375 0.375441,0.128137 1.281434,-2.006494 1.908203,-3.189454 3.973208,1.014526 7.327821,1.778211 9.044922,1.69336 3.766666,-4.065333 3.386718,-8.552734 3.386718,-8.552734 C 46.906698,45.643047 21.343031,40.467787 15.572266,34.099609 13.469036,26.689068 7.4032693,27.924861 3.5273438,39.091797 -0.37982476,50.34561 6.8121593,56.242034 10.994141,50.625 c 3.469655,-1.201527 10.498501,0.165649 17.568359,1.910156 -0.218468,0.0099 -0.409323,0.09562 -0.5625,0.277344 -0.676533,0.8 -0.06484,2.599563 0.996094,4.351562 -0.0172,0.03201 -0.03891,0.06832 -0.05664,0.09766 C 27.225986,55.640382 25.3812,54.572583 24.75,55.53125 c -0.5464,0.830667 0.227831,2.394964 1.457031,3.904297 -1.5448,-0.532 -2.872745,-0.575198 -3.080078,0.355469 -0.147867,0.668 0.341519,1.425432 1.136719,2.134765 -0.538933,0.05467 -0.926356,0.284011 -1.035156,0.777344 -0.100534,0.461333 0.06191,0.946044 0.392578,1.414063 -0.4036,0.457333 -0.741857,0.835609 -0.972656,1.099609 -0.234419,2.245333 2.705078,3.080078 2.705078,3.080078 l 1.703125,-1.789063 c 1.621333,0.630686 3.217754,0.744594 3.554687,-0.191406 0.190667,-0.52 -0.140133,-1.164255 -0.75,-1.794922 0.351067,0.03467 0.654369,0.01632 0.917969,-0.04102 3.941066,3.636 14.541555,13.185234 17.306641,13.365234 3.416666,0.230667 15.125,-2.453125 15.125,-2.453125 -10e-7,0 13.393742,35.768117 30.671874,43.550777 l 0,8.16993 c -8.953066,-5.91467 -17.064881,-8.06843 -19.363281,-8.00976 -2.6756,0.0733 -3.216226,2.40846 -6.818359,1.89648 -2.804133,-0.40001 -10.786168,-16.01811 -18.865234,-19.52345 0.452533,-0.65466 1.348601,-1.599097 2.802734,-1.64843 2.2344,-0.07067 1.385601,5.3784 8.677734,2.84375 -6.629733,-0.91619 -5.514618,-11.154 -10.896484,-7.75 -3.1572,1.994667 -2.800575,5.034764 -2.609375,5.9414 -1.6276,-0.25599 -3.240562,0.0658 -4.798828,1.20313 -7.014667,5.12666 0.880859,13.02929 0.880859,13.02929 0,0 -3.709958,6.14133 -1.640625,6.86133 2.073333,0.71067 5.189453,-3.51562 5.189453,-3.51562 l 3.720703,2.47851 c 0,0 3.134459,-1.97554 2.703125,-6.29687 3.61,4.88933 1.261719,8.45898 1.261719,8.45898 0,0 -0.0052,2.11316 2.515625,1.92383 2.518267,-0.19333 3.956864,-3.20727 5.091797,-2.08594 0.688,0.67467 2.985879,4.4129 -2.117187,7.49024 -5.107353,3.07866 -19.871595,5.55427 -29.933594,-6.40039 -0.02973,-2.12667 -1.98842,-6.7733 -2.626953,-8.39063 -0.638,-1.608 0.119599,-4.1547 -2.177735,-3.74805 -2.301066,0.40534 0.357422,5.6836 0.357422,5.6836 -0.869913,-0.75672 -1.8714,-1.88988 -2.689453,-0.98438 -0.432475,0.67536 0.33409,1.56694 1.324219,2.8125 -1.476289,-1.05253 -2.966455,-1.38875 -3.34375,-0.60937 -0.304785,0.6287 0.730364,1.66304 1.732422,2.60351 -1.131942,-0.22985 -2.412555,-0.15563 -2.472657,0.51758 -0.13354,0.80862 0.840304,0.97849 1.460938,1.40039 -0.368661,0.0867 -1.304915,-0.15171 -1.318359,0.53125 -0.114877,1.27788 2.966944,2.54217 5.673828,2.19727 16.490507,18.30376 37.85591,6.70508 40.464843,7.20508 1.0552,0.20266 7.541016,4.125 7.541016,4.125 0,0 9.375571,15.49122 20.273437,22.97656 l 0,10.71289 c -2.926533,0.40267 -5.741788,1.56564 -8.169921,3.32031 l 0.08398,-0.25195 c -3.101067,-6.11734 -7.98679,-7.8573 -12.722656,-7.0293 l 0.523437,-0.32226 c -1.0776,-11.772 -13.371908,-10.62868 -16.109375,-4.38868 -8.5776,-3.052 -14.76431,-0.77354 -17.714843,2.81446 -5.627086,-6.65467 -14.041915,1.64314 -1.925782,5.25781 0,0.0973 -0.01155,0.19892 -0.0059,0.29492 0.605733,7.44533 12.150715,13.40379 19.425781,-3.18555 l 0.02539,-0.45117 c 0.610933,2.04134 2.100723,4.29706 4.847656,6.65039 l 0.628906,-0.38476 c -6.177066,7.52133 -5.644022,19.20013 16.089844,21.60547 l 0.01563,-0.041 c 1.807733,5.63867 6.423413,11.58669 15.007812,17.05469 l 0,13.2539 c -8.232056,-16.1209 -40.458808,-31.33761 -45.152343,-20.65429 -5.957369,13.57131 23.823974,35.02611 45.152343,33.78515 l 0,2.45118 c -5.293048,-0.69254 -10.725802,-1.05469 -16.154296,-1.05469 -0.215037,1.9e-4 -0.429541,0.007 -0.644532,0.008 -0.860792,-0.91966 -2.197904,-1.47758 -3.470703,-1.45117 -1.142455,0.0237 -2.232035,0.51776 -2.873047,1.64062 -2.190543,0.11703 -4.359374,0.30881 -6.513672,0.53321 -1.65981,-2.31217 -6.173695,-2.87988 -7.068359,0.92968 -3.151947,0.51659 -6.219251,1.159 -9.177734,1.91407 -1.503271,-3.03914 -7.722735,-3.79699 -7.484375,2.25 -1.660272,0.58587 -3.26711,1.21503 -4.810547,1.88867 -1.569281,0.68857 -3.069829,1.42638 -4.503906,2.20703 -2.332086,-2.44522 -8.47414,-1.2542 -6.496094,4.29492 -1.222266,0.98995 -2.359612,2.03101 -3.378906,3.13867 -0.761918,0.82431 -1.446813,1.69723 -2.078125,2.59766 -3.344719,-1.00034 -7.852079,3.92969 -3.228516,7.06642 -0.33137,1.40122 -0.523312,2.84566 -0.519531,4.33789 0,1.02926 0.08453,2.0735 0.25,3.1289 -3.339216,1.45562 -3.204972,8.63209 2.703125,7.36327 1.087557,1.62341 2.453837,2.96434 4.052734,3.94336 0.131045,0.0806 0.269103,0.14665 0.402344,0.22266 -0.502184,3.44173 4.871366,7.4126 7.546875,2.10548 0.534209,0.0342 1.07209,0.0566 1.617187,0.0566 2.477864,-0.0155 5.108406,-0.36476 7.832032,-0.95898 1.611914,2.86575 7.459787,3.55122 7.433593,-2.15235 3.32211,-1.17886 6.718595,-2.65468 10.115235,-4.32032 2.073189,2.6891 8.39505,1.97612 6.888672,-3.63672 2.144352,-1.21212 4.270214,-2.47732 6.353515,-3.78516 0.568209,-0.36212 1.109558,-0.73536 1.669922,-1.10156 2.516139,1.41923 6.789485,0.35469 5.925781,-4.05664 6.282926,-4.50336 11.719252,-9.10557 15.611328,-13.30273 l 0,5.4082 c -21.34024,12.26526 -57.123579,57.92138 -30.125,67.74023 19.035395,6.92162 26.979302,-23.32771 30.125,-43.44531 l 0,37.87695 105.539109,0 c -3.80553,4.04894 -9.72744,11.90354 -7.38477,19.65821 3.48267,11.5428 14.80863,16.11491 24.7793,13.33984 9.97333,-2.77547 21.38495,-19.21791 2.87695,-27.92578 3.04933,11.54013 -6.53188,10.23372 -10.67188,7.40039 -3.38666,-2.31453 -0.63347,-9.74346 5.25586,-12.47266 l 28.36524,0 c 7.28,5.8036 -3.24619,15.62662 -5.88086,5.50782 -6.52933,10.01626 2.18133,14.8057 9.36133,12.8457 7.188,-1.95987 13.72263,-20.68007 28.52929,-12.4082 14.80534,8.27453 6.96444,22.20598 0.64844,23.51172 -6.31067,1.30773 -10.22934,-7.40533 0.22266,-11.75586 -12.63067,-3.048 -17.05825,10.88126 -12.41406,19.16406 5.00799,8.9256 22.21279,9.79325 27.21679,1.95898 5.184,-8.112 8.7022,-29.12581 -12.34179,-38.82421 l 22.4375,0 c 7.29466,1.4292 8.9361,5.05135 8.9121,8.73829 -2.16933,4.10253 -10.75002,3.73343 -7.80468,-2.47071 -16.01067,6.20414 3.3614,16.38018 11.80273,8.68164 5.93733,-5.41346 4.46889,-11.69095 3.07422,-14.94922 l 13.37695,0 0,-8.0039 c 14.932,-7.75374 29.84011,-2.1672 37.27344,2.96094 8.16533,5.62906 23.92677,19.85999 10.13477,36.46679 -13.792,16.612 -47.57819,7.59726 -45.60352,-6.47461 1.96933,-14.0724 10.13001,-17.45312 16.88867,-17.45312 6.75467,0 14.63579,12.10267 2.81446,14.63867 7.59733,-9.0104 -5.91069,-10.98228 -10.41602,-5.63281 -4.50533,5.35053 -4.22192,12.95103 1.96875,15.48437 6.196,2.53334 28.99534,7.03376 27.02734,-17.73437 -1.97066,-24.77294 -32.37261,-17.73509 -43.35547,-7.60156 -6.24666,5.77186 -26.22547,32.10234 3.61719,45.61328 29.83734,13.51293 65.63851,-12.67698 66.20117,-43.64258 0.39067,-21.65413 -24.65744,-57.92692 -66.55078,-50.29492 l 0,-4.85938 38.22461,2.49414 c 1.84534,2.644 4.76952,4.69727 7.99219,4.69727 5.40933,0 9.58984,-5.78547 9.58984,-10.4668 0,-4.68133 -4.39073,-8.47266 -9.80273,-8.47266 -4.308,0 -7.95353,2.40229 -9.26953,5.73829 l -36.73438,-2.48047 0,-12.36328 3.47266,0 c -0.10133,0.30933 -0.2161,0.6134 -0.27344,0.9414 -0.67866,4.088 2.60208,8.04856 7.33008,8.83789 4.56533,0.76 8.78288,-1.71378 9.68555,-5.56445 4.02666,0.52667 7.98098,0.74662 11.70898,0.75195 6.04133,-0.005 12.3509,-0.9258 17.60156,-1.98047 0.33334,0.33467 0.68031,0.6619 1.04297,0.97656 6.4,5.49733 15.20192,5.74544 19.66992,0.55078 4.476,-5.19867 2.91554,-13.86452 -3.48046,-19.36719 -6.38534,-5.49733 -15.19411,-5.74297 -19.66211,-0.54297 -1.96267,2.27867 -2.7632,5.22792 -2.50586,8.28125 -4.17467,0.792 -8.70602,1.42774 -12.66602,1.42774 -6.452,0.007 -21.43612,-0.70998 -30.68945,-2.69532 l 20.4375,-3.18945 c 1.64933,1.90267 4.38666,3.00081 7.36133,2.63281 4.428,-0.55466 7.63739,-4.10612 7.16406,-7.93945 -0.48,-3.83067 -4.45872,-6.48807 -8.88672,-5.94141 -2.92667,0.36267 -5.28479,2.04433 -6.43945,4.23634 l -7.09375,1.0625 c 0.25866,-0.80933 0.33972,-1.6654 0.15039,-2.52539 -0.65867,-2.88933 -3.88871,-4.61723 -7.22071,-3.86523 -3.33333,0.75333 -5.5017,3.70565 -4.8457,6.59765 0.124,0.54266 0.35582,1.02704 0.64649,1.47657 l -2.50782,0.3789 0,-15.57032 13.8125,-1.74413 c -0.11333,0.672 -0.12727,1.36277 0.0273,2.05078 0.732,3.25733 4.36118,5.20079 8.11718,4.35547 3.74267,-0.84935 6.17927,-4.16651 5.44727,-7.42384 -0.0547,-0.23466 -0.15499,-0.44929 -0.23633,-0.66796 l 7.26563,-0.91797 c 2.03066,1.85067 5.12273,2.71351 8.30273,1.99218 4.83867,-1.096 7.98635,-5.37873 7.04102,-9.58008 -0.94934,-4.19733 -5.6419,-6.71257 -10.47657,-5.62304 -2.46666,0.55999 -4.482,1.95304 -5.75,3.73437 l -33.55078,4.45704 0,-25.29688 c 0.16164,-0.0266 4.19412,-0.78401 7.44727,-4.24024 -0.16667,7.968 -0.74356,14.08407 -2.35156,17.94141 -0.37867,0.912 0.0541,1.95212 0.96875,2.32812 0.21733,0.0907 0.44849,0.13283 0.67382,0.13283 0.70134,0 1.36578,-0.41686 1.64844,-1.10353 2.46,-6.08133 2.66226,-14.93092 2.6836,-26.57227 0,-0.912 -0.68372,-1.676 -1.5879,-1.77734 -0.11333,-0.0118 -0.22602,-0.0128 -0.33593,-0.004 -0.76938,0.0633 -1.42852,0.61908 -1.60352,1.39259 -0.81866,3.66266 -2.83608,5.67301 -4.71875,6.90235 -0.94266,0.604 -1.84276,0.98622 -2.49609,1.21289 -0.14644,0.0505 -0.21478,0.0658 -0.32813,0.0996 l 0,-14.23633 8.82422,-17.55274 c 0.52,0.95334 1.11618,2.08407 1.71485,3.30274 0.1,0.20932 0.2014,0.41885 0.30273,0.63086 -2.112,2.888 -3.89938,5.78232 -3.99805,8.70898 -0.0133,1.10934 0.36886,2.32551 1.24219,3.21485 0.86267,0.892 2.04988,1.39367 3.42188,1.65234 0.496,0.0853 0.97288,0.13867 1.43554,0.13867 1.288,0.0267 2.61435,-0.46875 3.40235,-1.46875 0.78666,-0.992 0.98366,-2.14448 0.98632,-3.25781 -0.036,-2.60267 -1.10033,-5.64954 -2.375,-8.54688 0.076,-0.0933 0.14799,-0.18534 0.22266,-0.27734 1.056,-1.34933 2.14072,-2.63622 3.13672,-3.82422 0.0533,1.91867 0.23848,3.84348 0.64648,5.49414 0.25467,0.996 0.57353,1.89184 1.13086,2.70117 0.516,0.78399 1.52001,1.58427 2.77735,1.57227 1.24133,-0.0333 1.97012,-0.76719 2.43945,-1.36719 1.304,-1.796 2.10982,-4.6668 2.89648,-7.60547 0.016,0.736 0.0632,1.42393 0.17383,2.0586 0.088,0.44 0.18618,0.86471 0.46485,1.35937 0.23466,0.46534 0.98122,1.18068 1.94921,1.16602 0.80553,0.0147 1.47261,-0.51267 1.72461,-0.88867 0.86267,-1.384 0.75129,-2.43809 0.99415,-4.10743 0.23066,-2.392 0.48042,-5.50884 1.23242,-7.96484 0.792,-2.52533 1.85511,-3.93559 3.42578,-4.18359 0.204,-0.0373 0.37405,-0.0508 0.49804,-0.0508 0.58819,0.0747 0.40364,0.0222 0.6543,0.35156 0.2,0.356 0.36542,1.26653 0.35742,2.39453 0.008,2.03333 -0.42044,4.62367 -0.42578,6.76367 0.005,0.89733 0.0499,1.73505 0.42188,2.62305 0.29066,0.90133 1.49683,1.89569 2.6875,1.81836 0.112,0 0.20391,-0.006 0.27344,-0.0117 1.35866,-0.144 2.22447,-0.98125 2.75781,-1.78125 1.50133,-2.31867 2.20371,-5.99107 3.23437,-9.67774 0.91809,2.48865 2.73764,4.44445 4.94336,5.31446 -0.0847,0.28523 -0.1668,0.58417 -0.24804,0.90429 -1.23348,2.95067 -3.99249,4.76802 -7.03516,6.41602 -1.74133,0.94667 -3.50695,1.78694 -4.98828,2.84961 -1.44267,1.012 -2.85085,2.52812 -2.85352,4.68945 0,0.55867 0.0964,1.10463 0.26172,1.64063 0.292,0.93733 1.29171,1.46596 2.23438,1.17382 0.94,-0.29599 1.46849,-1.2957 1.17382,-2.23437 l -0.006,0 c -0.076,-0.256 -0.10156,-0.44674 -0.10156,-0.58008 0,-0.46933 0.25367,-0.96816 1.375,-1.79883 1.82,-1.41866 5.4691,-2.69623 8.6211,-5.10156 -0.46,2.996 -0.94111,6.41129 -1.53711,10.00195 -1.32267,8.124 -3.19071,16.94366 -6.10938,22.34766 -0.464,0.86667 -0.13958,1.95006 0.73242,2.41406 0.26534,0.14267 0.55842,0.21094 0.84375,0.21094 0.63334,0 1.24765,-0.33874 1.57032,-0.94141 3.30533,-6.19733 5.1138,-15.20441 6.48046,-23.45507 1.108,-6.84801 1.94662,-13.3161 2.75196,-16.63477 0.20264,-0.51131 0.36515,-1.05474 0.5,-1.62109 1.83859,-0.44543 3.89034,-1.56023 5.91211,-3.13478 1.47333,1.492 3.37849,2.72574 5.78515,2.81641 1.816,0.0213 3.6549,-0.9103 5.10157,-2.6543 0.632,-0.75467 0.53644,-1.87562 -0.21289,-2.51562 -0.75353,-0.632 -1.87963,-0.53645 -2.51563,0.21289 -1.01467,1.168 -1.71571,1.37719 -2.37305,1.39453 -0.84266,0.0893 -2.02299,-0.62667 -3.09765,-1.63867 0.0187,-0.02 0.036,-0.04 0.0547,-0.0547 3.15867,-3.37867 5.7893,-7.27326 5.89063,-10.91992 0.008,-1.136 -0.34123,-2.36649 -1.22656,-3.28516 -0.88134,-0.91999 -2.11734,-1.39906 -3.5,-1.53906 -0.176,-0.0173 -0.36126,-0.0273 -0.5586,-0.0273 -2.616,0.016 -4.3878,1.90195 -5.36914,3.86328 -1.016,2.00954 -1.49662,4.3869 -1.50195,6.59376 0.0107,1.66933 0.25202,3.23866 1.05469,4.58398 0.0853,0.12934 0.16652,0.25873 0.25586,0.38672 -2.03867,1.52533 -4.13925,2.51121 -4.89258,2.56054 -0.076,-0.005 -0.14502,-0.006 -0.17969,-0.006 -0.72533,0.0253 -1.8753,-0.50808 -2.7793,-1.58008 -0.91066,-1.05334 -1.55025,-2.5419 -1.54492,-4.11524 0.0253,-2.08133 1.00712,-4.50166 4.56445,-6.875 0.68686,-0.45066 0.97451,-1.31784 0.70118,-2.08984 -0.28,-0.77467 -1.05838,-1.26459 -1.87305,-1.16992 -2.96933,0.31866 -5.10515,2.27097 -6.50781,4.54297 -2.136,3.436 -3.1703,7.9163 -4.1543,11.54296 -0.47733,1.80686 -0.93906,3.39311 -1.40039,4.39844 -0.016,0.0453 -0.0374,0.083 -0.0508,0.12305 -0.005,-1.67467 0.41511,-4.31747 0.42578,-6.74414 -0.0133,-1.38 -0.11552,-2.72967 -0.74219,-4.01367 -0.58666,-1.30799 -2.16375,-2.36753 -3.83594,-2.29687 -0.36533,0 -0.73532,0.0362 -1.11132,0.10156 -2.50667,0.42 -4.23866,2.19716 -5.22266,4.14649 -0.36933,0.72533 -0.67378,1.49325 -0.92578,2.28125 -0.0173,-0.0307 -0.0295,-0.063 -0.0469,-0.0977 -0.17466,-0.39866 -0.8568,-1.15501 -1.85546,-1.15235 -0.34134,0.004 -0.62357,0.0842 -0.85157,0.18556 -1.11466,0.59066 -1.20811,1.19686 -1.55078,1.79687 -0.928,2.09867 -1.71845,5.85385 -2.67578,9.22852 -0.46933,1.66933 -0.96755,3.20765 -1.43555,4.20898 -0.072,0.15867 -0.14746,0.30364 -0.21679,0.43164 -0.51067,-1.19333 -0.9754,-4.19258 -0.91407,-6.89259 0,-1.496 0.0938,-2.95285 0.23243,-4.10351 0.0973,-0.83333 -0.3978,-1.62849 -1.20313,-1.89649 -0.796,-0.27332 -1.67809,0.0525 -2.10742,0.78321 -0.60533,1.07733 -3.06353,3.83838 -5.51953,6.87304 -1.57867,-3.10666 -3.0062,-5.4577 -3.01953,-5.48437 -0.344,-0.55734 -0.95242,-0.87885 -1.59375,-0.85352 -0.652,0.0253 -1.23544,0.40118 -1.52344,0.97852 l -7.12891,14.18554 0,-18.63671 11.31055,-5.65625 -11.31055,-2.55274 0,-0.33398 c 5.376,-0.72533 32.87081,-4.78209 49.74414,-13.88476 C 365.85555,122.13342 339.82227,121 339.82227,121 l 76.40039,-44.423828 -80.36328,26.316408 31.12695,-23.769533 -31.12695,12.451172 32.82421,-40.466797 -42.22265,35.1875 -16.97852,0 c 6.548,-4.353333 19.9523,-14.225459 16.04297,-19.828125 -5.11867,-7.333333 -18.92578,5.115234 -18.92578,5.115234 0,0 6.99143,-17.562323 -5.11523,-15.347656 -10.37886,1.905333 -5.97458,23.83388 -4.50391,30.060547 l -15.17383,0 c -1.292,-2.605333 -4.28213,-7.026761 -10.35547,-8.996094 7.35067,0.785333 22.59939,-8.894359 6.13672,-15.318359 10.13067,3.956 22.40791,-22.779089 10.64258,-30.232422 -11.76667,-7.449333 -38.93494,5.834828 -22.84961,20.298828 -4.48933,-4.036 -15.55875,7.380021 -4.08008,14.554687 -3.732,-0.286666 -9.39359,-1.412442 -7.9414,8.212891 -0.85219,-5.657333 -6.42697,-13.779291 -15.9043,0.859375 11.76933,-18.083999 -1.39804,-34.177374 -16.35938,-17.609375 -3.2965,-8.791969 -10.47669,-12.263199 -16.9707,-11.980469 -2.49489,0.173588 -3.76231,0.472417 -6.41016,1.634766 z M 29.220703,52.701172 c 0.07297,0.01823 0.143849,0.03834 0.216797,0.05664 0.17702,0.09269 0.326016,0.202747 0.433594,0.335938 -0.226922,-0.171809 -0.442955,-0.296514 -0.650391,-0.392578 z M 149.9375,56.953125 c 1.02016,-0.06052 -0.6633,10.809729 -2.26367,19.992187 -0.80134,-2.461333 -1.43184,-4.49501 -1.5625,-5.152343 -0.40934,-2.050667 1.61208,-13.422828 3.71875,-14.798828 0.0386,-0.02512 0.0745,-0.03906 0.10742,-0.04102 z m 16.62305,0.826172 c 0,0 8.50303,7.735875 8.70703,9.171875 0.17733,1.238667 -3.0018,3.092901 -8.3418,6.990234 -1.20267,-7.685333 -2.0159,-15.610109 -0.36523,-16.162109 z m -54.37696,2.576172 c 2.2052,0.14 1.0845,15.647453 2.81836,25.939453 l -5.48828,0 c -2.60826,-11.474667 0.47312,-26.076787 2.66992,-25.939453 z m 15.44141,0.148437 c 1.55613,-0.285333 4.8782,10.315016 5.55273,25.791016 l -3.82226,0 C 126.268,71.688256 126.06607,60.78524 127.625,60.503906 z M 80.484375,125.8418 c 2.195565,-0.17998 8.819738,3.61178 13.398437,6.42578 l 0,4.29687 -12.705078,-7.26367 c 0,0 -1.65415,-2.57105 -1.34375,-3.12305 0.114067,-0.20216 0.336739,-0.31022 0.650391,-0.33593 z m 315.759765,6.55859 0.0391,0 c 0.0507,0 0.10955,0.008 0.18555,0.0137 0.84133,0.0907 1.16816,0.32103 1.29883,0.45703 0.12133,0.13334 0.22371,0.31098 0.23437,0.82032 0.096,1.61733 -1.89027,5.30053 -4.59961,8.14453 -0.23466,-0.49867 -0.43582,-1.45507 -0.42382,-2.53906 -0.008,-1.65753 0.41061,-3.61861 1.11328,-4.97461 0.72266,-1.38134 1.48434,-1.92188 2.15234,-1.92188 z m -45.8125,5.39063 c -1.57733,0.008 -2.86257,1.29118 -2.86523,2.86718 0.003,1.576 1.2879,2.86452 2.86523,2.86719 1.58533,-0.003 2.87305,-1.29119 2.87305,-2.86719 -0.007,-1.576 -1.29705,-2.86185 -2.87305,-2.86718 z m -8.14453,23.65234 c 0.76933,2.03733 1.29034,3.93753 1.26367,5.13086 0.008,0.66 -0.14998,0.97829 -0.19531,1.01562 -0.0413,0.0267 -0.0276,0.12044 -0.62891,0.14844 -0.2,0 -0.47235,-0.0286 -0.79101,-0.0859 -0.91867,-0.168 -1.34586,-0.44776 -1.50586,-0.62109 -0.152,-0.17733 -0.21971,-0.29899 -0.23438,-0.73633 -0.08,-0.948 0.77847,-2.79289 2.0918,-4.85156 z m 20.13672,2.22266 c -0.472,0 -0.9443,0.0727 -1.4043,0.2207 -3.18933,1.18133 -4.64284,4.6517 -4.71484,8.0957 -0.0667,2.55867 1.08307,5.44337 3.67773,7.08203 -1.88533,2.804 -2.84985,6.14902 -2.86719,9.17969 0.005,1.94267 0.40132,3.80617 1.44532,5.32617 1.004,1.51067 2.80771,2.54688 4.87304,2.54688 l 0.0937,0 c 0.79734,0 1.62633,-0.12967 2.48633,-0.375 4.03334,-1.068 6.1284,-4.34669 6.03906,-7.55469 -0.0747,-4.064 -2.55567,-8.20597 -6.26367,-10.41797 1.69867,-2.156 2.43626,-4.52893 2.4336,-6.68359 -0.0307,-3.76134 -2.17083,-7.25992 -5.79883,-7.41992 z m 0,3.56445 0.0117,0 c 0.344,0 0.84765,0.22963 1.34765,0.9043 0.49334,0.66933 0.87572,1.72983 0.87305,2.95117 -0.005,1.57733 -0.58869,3.4105 -2.30469,5.20117 -1.83333,-0.86133 -2.41761,-2.40069 -2.48828,-4.30469 -0.0773,-2.34133 1.44148,-4.60802 2.24414,-4.69336 0.11867,-0.04 0.22441,-0.0586 0.31641,-0.0586 z m -12.66602,3.24023 c -2.49333,0.0773 -4.06753,1.84816 -5.17969,3.66016 -1.10399,1.88267 -1.79206,4.07895 -1.80273,6.12695 0.007,1.41867 0.33569,3.04284 1.81836,4.07617 0.80267,0.54267 1.76294,0.82822 2.71094,0.82422 1.668,-0.0547 3.18401,-0.78888 4.41601,-2.07422 10e-4,6.292 -0.98434,9.89057 -2.01367,11.72657 -1.04133,1.85066 -1.93234,1.9516 -2.15234,1.96093 l -0.0996,0 c -0.21067,-0.0227 -0.4645,-0.13324 -0.8125,-0.64257 -0.33067,-0.508 -0.60094,-1.392 -0.59961,-2.5 0,-0.48134 0.0458,-0.98906 0.14844,-1.51172 0.19866,-0.96267 -0.42396,-1.90361 -1.39063,-2.09961 -0.964,-0.196 -1.90816,0.42724 -2.09766,1.39258 -0.15866,0.76933 -0.22656,1.51208 -0.22656,2.21875 0.0107,1.66133 0.37749,3.17858 1.16016,4.41992 0.76933,1.22533 2.09054,2.19777 3.67187,2.28711 0.12534,0.003 0.18076,0.002 0.2461,0.002 l 0.0273,0 c 1.74933,0 3.81667,-1.16273 5.25,-3.80273 1.456,-2.66267 2.45099,-6.80032 2.45899,-13.45899 0,-2.41866 -0.13812,-5.18031 -0.43946,-8.32031 -0.032,-0.33333 -0.15379,-0.63863 -0.34179,-0.89063 -0.0467,-0.17333 -0.12452,-0.33814 -0.22852,-0.49414 l -0.002,0 c -1.15467,-1.76933 -2.73749,-2.90039 -4.52149,-2.90039 z m -0.0625,3.55664 c 0.0253,0 0.0425,0.003 0.0625,0.006 0.196,0.004 0.6841,0.077 1.4961,1.23438 -0.52534,4.72133 -2.96122,6.3956 -3.94922,6.32226 -0.27467,-0.003 -0.49438,-0.0667 -0.73438,-0.22265 0,-0.001 -0.0242,-9.3e-4 -0.10156,-0.1836 -0.0667,-0.17333 -0.12695,-0.50444 -0.12695,-0.92578 -0.012,-1.184 0.5014,-2.98986 1.30273,-4.30469 0.74267,-1.30266 1.69345,-1.92578 2.05078,-1.92578 z m 13.65821,6.43555 c 2.856,1.39733 5.21271,5.01528 5.13671,7.72461 -0.0947,1.92 -0.72307,3.24571 -3.45507,4.12305 -0.592,0.17333 -1.09982,0.23828 -1.50782,0.23828 -1.068,-0.0267 -1.53577,-0.34053 -2.03711,-1.00586 -0.47733,-0.67733 -0.81526,-1.85616 -0.80859,-3.29883 -0.0173,-2.45867 0.96254,-5.52125 2.67188,-7.78125 z m 8.68554,30.25781 c 1.42667,0 2.58008,1.15723 2.58008,2.58789 0,1.42534 -1.15341,2.58399 -2.58008,2.58399 -1.432,0 -2.59375,-1.15865 -2.59375,-2.58399 0,-1.43066 1.16175,-2.58789 2.59375,-2.58789 z m -305.210935,0.48438 c 6.906526,-0.31032 21.942514,12.95754 27.054687,22.09961 l 0,1.29883 c -12.902,-2.59496 -34.168732,-12.48862 -30.074218,-21.45118 0.586979,-1.28354 1.641626,-1.88535 3.019531,-1.94726 z m 284.531255,8.95117 c 1.10666,0 1.99983,0.89715 2,2.00781 -10e-6,1.1 -0.89334,2 -2,2 -1.10153,0 -2.00196,-0.9 -2.00196,-2 0,-1.11066 0.90043,-2.00781 2.00196,-2.00781 z m -13.55079,14.44141 c 0.892,0 1.61133,0.72466 1.61133,1.61132 0,0.888 -0.71933,1.61133 -1.61133,1.61133 -0.88666,0 -1.60937,-0.72333 -1.60937,-1.61133 0,-0.88666 0.72271,-1.61132 1.60937,-1.61132 z m 20.32422,2.06054 c 1.06274,0.0815 1.95568,0.9057 2.08985,2.00586 0.15866,1.25467 -0.7289,2.39559 -1.99024,2.54492 -1.24933,0.15734 -2.39283,-0.73361 -2.54883,-1.98828 -0.148,-1.25333 0.73505,-2.39878 1.98438,-2.55078 0.157,-0.02 0.31302,-0.0234 0.46484,-0.0117 z m 32.17578,8.64063 c 2.168,0 3.92188,1.74978 3.92188,3.92578 0,2.16933 -1.75388,3.92383 -3.92188,3.92383 -2.168,0 -3.92968,-1.7545 -3.92968,-3.92383 0,-2.176 1.76168,-3.92578 3.92968,-3.92578 z m -313.056637,0.0273 0.476563,0 c 1.746121,0 3.491089,0.0498 5.232422,0.12305 -19.555478,0.97248 -45.576455,7.59665 -41.994141,21.8125 3.497446,13.87298 31.951565,-2.73905 47.023437,-14.52149 -4.94373,4.84736 -12.283283,10.6411 -20.28125,15.65235 -12.323333,7.844 -26.521983,14.068 -35.65625,14 -2.794266,0 -5.017817,-0.5505 -6.646484,-1.5625 -1.621333,-1.02 -2.812496,-2.46789 -3.601562,-4.94922 -0.531222,-1.69867 -0.769532,-3.27115 -0.769532,-4.75781 0.0124,-3.76267 1.48046,-7.08548 4.363282,-10.24414 8.524533,-9.49067 30.110182,-15.55274 51.853515,-15.55274 z m 264.205077,8.87891 c 0.16282,-0.006 0.32714,0.005 0.49414,0.0332 1.33867,0.21867 2.24282,1.48937 2.02149,2.83203 -0.21867,1.33334 -1.49222,2.24229 -2.82422,2.01563 -1.34134,-0.22667 -2.24763,-1.48155 -2.01563,-2.82422 0.19367,-1.1725 1.1845,-2.01739 2.32422,-2.05664 z m -247.574218,10.05668 0,4.13281 c -2.25544,9.58924 -8.083136,30.70677 -15.167968,27.39063 -8.805879,-4.12267 4.645689,-25.52372 15.167968,-31.52344 z m 281.904298,5.36719 c 1.53067,0 2.76953,1.23948 2.76953,2.77148 0,1.53333 -1.23886,2.77344 -2.76953,2.77344 -1.536,0 -2.7713,-1.24011 -2.77149,-2.77344 10e-6,-1.532 1.23549,-2.77148 2.77149,-2.77148 z m -349.458985,38.0039 c -0.480375,-0.0422 -0.966791,0.11251 -1.337891,0.44141 -4.5032,4.212 -7.133497,14.47468 -10.154296,24.02148 -1.453743,4.7412 -2.911592,9.24466 -4.396485,12.43946 -0.7364656,1.59333 -1.4934903,2.85334 -2.1523436,3.59961 -0.6786533,0.77453 -1.1207073,0.90421 -1.3066406,0.89648 -0.027081,0 -0.057944,5e-5 -0.091797,-0.008 -2.1276133,-0.2572 -3.2752588,-2.3224 -3.3242188,-4.78906 -0.00573,-1.16249 0.320835,-2.27251 0.796875,-2.95118 0.5036533,-0.68386 0.962758,-0.97134 1.7695313,-0.99414 0.54896,0 1.3381518,0.18826 2.3808594,0.79492 0.8463599,0.49747 1.9375003,0.20969 2.4375003,-0.63671 0.493746,-0.85214 0.210808,-1.94408 -0.638672,-2.44141 l -0.0039,0 c -1.4338574,-0.8376 -2.8341151,-1.27907 -4.1757817,-1.2832 -2.0349066,-0.0188 -3.749738,1.09226 -4.7070313,2.53906 -0.98437577,1.448 -1.41705727,3.20337 -1.4238280999999,4.97266 C -0.04739,347.72752 1.9231889,351.89925 6.4023497,352.55645 c 0.2005199,0.0265 0.3885374,0.0391 0.578125,0.0391 1.6713466,-0.009 2.9920642,-0.95813 3.9941403,-2.11132 3.430707,-4.05209 5.739714,-12.5028 8.373047,-20.9336 1.688134,-5.65573 3.566549,-11.29594 5.416016,-15.01367 0.01413,0.53853 0.02148,1.07972 0.02148,1.61719 0.0036,9.4052 -2.058577,18.30164 -2.042968,18.32031 -0.200409,0.85893 0.258744,1.73531 1.080078,2.05664 0.818266,0.32653 1.752112,0.001 2.195312,-0.75586 0.0068,-0.0145 3.17527,-5.44804 6.658203,-11.07617 1.368667,-2.2 2.781653,-4.4335 4.064453,-6.36524 -0.8656,4.08227 -2.036541,9.06589 -3.171875,13.98829 -1.935466,8.48693 -3.787974,16.71755 -3.80664,21.00195 0.0025,0.67867 0.03945,1.27891 0.189453,1.8789 0.160933,0.56836 0.42878,1.34507 1.373047,1.85547 0.385333,0.1964 0.812912,0.27841 1.195312,0.27735 2.163467,-0.19894 3.168398,-1.54675 4.644531,-3.08008 0.776543,-0.8912 1.577714,-1.93262 2.373047,-3.03516 -0.264,1.49427 -0.437399,2.95102 -0.447265,4.25196 0.03387,1.9548 0.278381,4.19835 2.550781,5.25195 0.4296,0.17453 0.880154,0.25 1.304687,0.25 2.141209,-0.1016 3.550836,-1.42888 5.042969,-2.93555 0.407867,-0.4324 0.81355,-0.90914 1.21875,-1.40234 -0.220933,1.16667 -0.360866,2.26365 -0.375,3.20898 0.04427,1.12814 0.06693,2.35874 1.316407,3.40821 0.478666,0.37186 1.084265,0.51922 1.572265,0.51562 2.022,-0.1604 3.171278,-1.34555 4.830078,-2.75391 2.860934,-2.64799 6.236308,-6.7546 8.431641,-9.54687 0.05893,0.29227 0.121241,0.59034 0.18164,0.90234 0.280809,1.41614 0.55964,3.03751 0.753907,4.64844 -1.101067,0.9016 -2.136324,1.79096 -3.025391,2.66016 -1.4448,1.49746 -2.722925,2.7826 -2.828125,4.86914 -0.02547,1.79213 1.4625,3.11046 3.0625,3.625 0.6604,0.24426 1.315143,0.38086 1.974609,0.38086 0.03281,0.003 0.07125,0.002 0.103516,0.002 1.824,0 3.27369,-1.38645 3.785156,-2.78125 0.600934,-1.44373 0.751899,-3.07802 0.759766,-4.83789 0,-0.76507 -0.0353,-1.55765 -0.0957,-2.35352 0.746933,-0.60253 1.519203,-1.21293 2.283203,-1.82226 1.410933,-1.1532 2.819883,-2.29732 4.09375,-3.47852 -0.076,1.10147 -0.115234,2.14416 -0.115234,3.12696 0.0063,2.41093 0.212159,4.42016 0.693359,6.00976 0.244267,0.79734 0.546774,1.50073 1.056641,2.13086 0.4812,0.61613 1.355468,1.19476 2.355468,1.17969 l 0.148438,0 c 1.148,-0.0479 2.082862,-0.70891 2.664062,-1.41211 1.949467,-2.4396 2.650878,-6.39846 4.501954,-10.45313 0.0812,-0.18906 0.168439,-0.36975 0.253906,-0.55468 0.326,4.88746 4.381368,8.1133 8.365234,8.1289 2.7688,0.0844 5.631177,-1.85813 6.439447,-5.32226 0.24693,-0.95467 -0.33249,-1.92548 -1.28515,-2.17188 -0.95009,-0.2416 -1.921749,0.33524 -2.166016,1.28907 -0.628133,2.11453 -1.612814,2.56195 -2.988281,2.64062 -2.153066,-0.003 -4.813206,-2.04756 -4.816406,-5.10742 -0.0079,-2.1256 1.243754,-5.16226 5.554687,-8.65039 0.683334,-0.55467 0.863555,-1.51091 0.429688,-2.27344 -0.435467,-0.75893 -1.352895,-1.09196 -2.173828,-0.78516 -6.6896,2.52134 -9.750218,8.38737 -11.646485,13.22071 -0.957333,2.4308 -1.6537,4.67684 -2.3125,6.17578 -0.288533,0.6692 -0.580082,1.1785 -0.791015,1.45703 -0.329734,-0.82813 -0.771644,-2.89422 -0.714844,-5.50195 -0.0041,-2.4948 0.269901,-5.56193 0.865234,-8.91407 0.1604,-0.89946 -0.389444,-1.77859 -1.267578,-2.02539 -0.882266,-0.25213 -1.809017,0.21024 -2.146484,1.05664 -0.671867,1.94427 -4.180364,5.05319 -7.779297,7.90625 -0.6412,-4.05306 -1.567419,-7.45106 -1.574219,-7.5 -0.174933,-0.65786 -0.719158,-1.15986 -1.390625,-1.28906 -0.6692,-0.12547 -1.358119,0.14354 -1.761718,0.69141 -0.0041,0.007 -2.671035,3.60624 -5.740235,7.19531 -1.533867,1.7948 -3.165965,3.57693 -4.556641,4.86133 -0.656266,0.6068 -1.260728,1.10183 -1.736328,1.41797 -0.0093,-1.92814 1.039181,-5.87784 2.123047,-9.12891 1.087467,-3.30107 2.173115,-6.00882 2.175781,-6.01562 0.351076,-0.88547 -0.05285,-1.89515 -0.925781,-2.29102 -0.8672,-0.388 -1.893779,-0.0313 -2.320312,0.82031 -0.0031,0.006 -1.889268,3.7265 -4.302735,7.42383 -1.202666,1.84693 -2.536886,3.68176 -3.751953,4.97656 -1.106266,1.24014 -2.196862,1.80134 -2.414062,1.81641 -0.09747,-0.12133 -0.345599,-0.85399 -0.322266,-1.93945 -0.0099,-2.4504 0.882414,-6.33448 1.810547,-9.47461 0.9224,-3.15734 1.841797,-5.61008 1.841797,-5.61328 0.323467,-0.87707 -0.08045,-1.85699 -0.925781,-2.24415 -0.8432,-0.39159 -1.854108,-0.0648 -2.306641,0.7461 -0.0027,0.0145 -2.168775,3.90418 -4.734375,7.78125 -1.2792,1.93853 -2.661979,3.86477 -3.867188,5.24023 -0.413066,0.4792 -0.807951,0.88576 -1.146484,1.19922 0.04733,-3.52546 1.815557,-11.78113 3.712891,-19.98633 1.939066,-8.44533 3.994548,-16.9183 4.488281,-21.39843 0.06933,-0.66667 -0.243401,-1.32408 -0.802734,-1.68555 -0.564134,-0.36773 -1.290961,-0.38612 -1.871094,-0.0449 -0.7792,0.4948 -1.20864,1.04685 -1.878906,1.85351 -2.314134,2.9052 -6.148563,9.00104 -9.226563,14.0625 0.339067,-2.924 0.597963,-6.29244 0.601563,-9.7539 0,-2.31454 -0.115717,-4.67107 -0.40625,-6.9668 -0.08813,-0.65787 -0.527818,-1.21198 -1.146485,-1.44531 -0.154166,-0.059 -0.312531,-0.0953 -0.472656,-0.10938 z M 158.57422,329.2793 c -1.95333,-0.0333 -3.58838,1.18204 -4.48438,2.67578 -1.936,3.21813 -2.51961,8.29637 -3.09961,13.95117 -0.63333,0.69573 -1.26848,1.36885 -1.89648,1.99805 -1.476,1.5 -2.89773,2.77851 -4.03906,3.64258 -0.57067,0.43333 -1.07288,0.75868 -1.43555,0.94921 -0.004,0 -0.003,-7.1e-4 -0.006,0.002 -0.06,-0.1708 -0.12592,-0.40008 -0.16992,-0.68555 -0.136,-0.69733 -0.20384,-1.65056 -0.20117,-2.69336 -0.007,-4.1156 0.99371,-9.44934 0.98437,-9.45508 0.0427,-0.2208 0.042,-0.43945 0.002,-0.65039 0.003,-0.0265 0.011,-0.0495 0.0137,-0.0703 0.12533,-0.88693 -0.42578,-1.72364 -1.28711,-1.96484 -1.204,-0.34 -2.3822,-0.49414 -3.51953,-0.49414 -6.52267,0.06 -11.09424,4.92442 -14.59571,9.30468 -1.75786,2.21974 -3.27229,4.40006 -4.54882,5.95313 -0.63547,0.776 -1.20595,1.38822 -1.65235,1.74609 -0.22026,0.1848 -0.40122,0.2992 -0.52148,0.35547 -0.11774,0.0573 -0.12696,0.042 -0.12696,0.0488 l -0.008,0 c -0.004,0 -0.11979,0.004 -0.41406,-0.25586 -0.93493,-0.74787 -2.16257,-3.57698 -2.11524,-6.43164 8e-5,-2.14427 0.58269,-4.26278 1.91602,-5.83985 1.34427,-1.57186 3.46513,-2.79291 7.16406,-3.01171 0.86094,-0.0453 1.55876,-0.69315 1.67383,-1.54688 0.10627,-0.85573 -0.39866,-1.6636 -1.2168,-1.92773 -0.77453,-0.25094 -1.57589,-0.36914 -2.37109,-0.36914 -3.88293,0.0468 -7.66992,2.47782 -10.66992,5.85742 -2.97347,3.412 -5.16191,7.91827 -5.18164,12.63867 0,1.6812 0.29247,3.38442 0.9414,5.02148 0.3672,0.91454 1.39863,1.36716 2.31836,1.00196 0.91454,-0.3656 1.35924,-1.4005 1.00391,-2.3125 l -0.004,0 c -0.47493,-1.19854 -0.6914,-2.43761 -0.6914,-3.71094 -0.008,-2.048 0.57762,-4.19092 1.55468,-6.18945 -0.003,0.13333 -0.004,0.25893 -0.004,0.38867 0.008,2.4812 0.5845,4.82887 1.5293,6.6914 0.9584,1.79227 2.27734,3.46055 4.5664,3.56055 l 0.0918,0 c 2.34627,-0.24787 3.51207,-1.78783 4.97461,-3.45703 1.49746,-1.90267 3.17468,-4.27681 5.02148,-6.52734 -0.11293,0.6812 -0.16601,1.34588 -0.16601,1.98242 0.009,1.3796 0.23577,2.63334 0.7207,3.71094 0.47133,1.03013 1.28635,2.1283 2.79102,2.36523 0.2532,0.0349 0.49916,0.0488 0.74609,0.0488 3.4876,-0.1744 5.77258,-2.72184 7.53125,-5.55664 0.032,1.02546 0.12527,1.99943 0.33594,2.89844 0.29333,1.12133 0.71422,2.33835 2.07422,3.07421 0.4,0.2 0.79479,0.25391 1.13086,0.25391 2.03733,-0.1624 3.34114,-1.37157 5.36914,-2.99023 0.568,-0.48707 1.15781,-1.0229 1.75781,-1.60157 -0.0333,0.27454 -0.0649,0.55011 -0.10352,0.82618 -0.0587,0.48386 -0.11597,0.96735 -0.16797,1.44921 -1.77733,1.71294 -4.08622,4.52606 -6.21289,7.74219 -2.53466,3.9104 -4.78784,8.20907 -4.83984,12.10547 -0.15867,2.88907 1.89688,5.82503 5.43555,6.35156 0.38133,0.0735 0.76115,0.11328 1.14648,0.11328 l 0.0937,0 c 2.144,0 3.83659,-1.488 4.66992,-3.21093 2.312,-4.67334 2.24451,-12.88813 3.08985,-21.29493 0.0627,-0.0129 0.16055,-0.0276 0.33789,-0.0312 0.76266,-0.0308 2.41925,0.43758 4.53125,0.45118 l 0.19531,0 c -0.16133,1.23173 -0.24805,2.44994 -0.24805,3.61914 0.008,1.95893 0.22223,3.75121 0.85156,5.27148 0.56407,1.47613 1.97474,2.98001 3.94141,2.95508 1.924,-0.0453 3.57771,-1.13457 5.48438,-3.00391 0.696,-0.7 0.69528,-1.82392 0.002,-2.52539 -0.7,-0.69226 -1.82363,-0.69515 -2.51563,-0.002 -1.59866,1.624 -2.73337,2.01213 -2.9707,1.9668 -0.14533,-0.0229 -0.23696,0.0626 -0.6543,-0.77344 -0.344,-0.7984 -0.57955,-2.23134 -0.57421,-3.88867 0,-1.29587 0.13038,-2.73862 0.37304,-4.17969 2.22,-0.54693 4.38589,-1.29685 6.19922,-2.28125 2.16667,-1.2036 4.18172,-2.84657 4.26172,-5.54297 0.003,-0.99587 -0.34169,-1.98018 -0.92969,-2.85351 -1.028,-1.57981 -2.51155,-2.66731 -4.21289,-2.66211 -2.832,0.13693 -4.49344,2.30098 -5.91211,4.60351 -1.008,1.7308 -1.82442,3.72568 -2.37109,5.68555 -0.31067,0.0348 -0.61592,0.0469 -0.91992,0.0469 -1.528,0.0147 -2.86779,-0.40317 -4.45313,-0.45117 0.188,-1.59733 0.35625,-3.17884 0.51758,-4.71484 1.16667,-1.3172 2.30161,-2.70727 3.34961,-4.08594 2.77867,-3.78547 5.01157,-7.19256 5.12891,-10.29883 0.11333,-1.3572 -0.91353,-3.11411 -2.49219,-3.48437 -0.60667,-0.1828 -1.21303,-0.28125 -1.81836,-0.28125 z m 0,3.56445 c 0.19467,0 0.43695,0.0286 0.73828,0.11914 0.005,0.0188 0.006,0.0446 0.006,0.082 0.0507,0.6548 -0.69016,2.62789 -2.04883,4.75196 -0.60133,0.96413 -1.30665,1.99236 -2.08398,3.02929 0.14,-0.95306 0.29151,-1.84801 0.46484,-2.67187 0.384,-1.92134 0.90317,-3.44155 1.45117,-4.29102 0.60134,-0.86253 0.88733,-0.9878 1.47266,-1.01953 z m 22.95508,1.94531 c -0.98934,0 -1.78516,0.79841 -1.78516,1.78321 l -0.004,0 c 0,0 0.008,0.11 -0.041,0.42773 -0.16933,1.01187 -0.68777,2.94918 -2.89844,3.87305 -0.912,0.38186 -1.33464,1.42753 -0.94531,2.33593 0.28267,0.67974 0.94658,1.0918 1.64258,1.0918 0.228,0 0.46412,-0.0451 0.68945,-0.14258 5.14,-2.2536 5.11843,-7.4166 5.12109,-7.58593 0,-0.9848 -0.79929,-1.78321 -1.77929,-1.78321 z m -101.0918,1.20899 c -1.501067,0 -2.722656,1.22555 -2.722656,2.71875 0,1.5068 1.221589,2.72461 2.722656,2.72461 1.4948,0 2.716797,-1.21781 2.716797,-2.72461 0,-1.4932 -1.221997,-2.71875 -2.716797,-2.71875 z m 339.31445,1.75586 c -0.14026,-0.0113 -0.28265,-0.0113 -0.42578,0.002 -0.16357,0.0152 -0.32869,0.0462 -0.49219,0.0957 -1.30133,0.3964 -2.03867,1.77813 -1.63867,3.07813 0.39867,1.30413 1.77484,2.04004 3.07617,1.64258 1.308,-0.3984 2.03725,-1.77351 1.64258,-3.07618 -0.30216,-0.99847 -1.18023,-1.66284 -2.16211,-1.74218 z m -279.58007,2.88281 c -0.47207,1.33173 -1.20816,3.23664 -2.16016,5.1289 -1.67733,3.54794 -4.33134,6.47895 -5.84961,6.24415 l -0.11914,0 c -0.19267,-0.25574 -0.60418,-1.28443 -0.57031,-2.55469 0.13586,-3.36827 1.78755,-7.91729 8.69922,-8.81836 z m 27.30273,5.17578 c 0.0267,0 0.0516,0.007 0.0703,0.0137 0.15067,0.005 0.52389,0.0294 1.25196,1.07617 0.27599,0.4224 0.32617,0.68132 0.32617,0.87305 0.0827,0.40053 -0.57959,1.43971 -2.40625,2.41211 -0.948,0.5224 -2.11472,0.99577 -3.38672,1.39844 0.39466,-1.04267 0.86557,-2.05196 1.3789,-2.92383 1.03867,-1.8828 2.36696,-2.84961 2.76563,-2.84961 z m 253.88281,2.78125 c -0.13209,-0.0103 -0.26565,-0.009 -0.40039,0.004 -0.15399,0.015 -0.30906,0.0462 -0.46289,0.0937 -1.23333,0.37186 -1.92678,1.67545 -1.55078,2.90039 0.376,1.23226 1.67168,1.92584 2.90234,1.55664 1.232,-0.37867 1.93007,-1.68109 1.55274,-2.91016 -0.28788,-0.94427 -1.11639,-1.57246 -2.04102,-1.64453 z m -183.80469,3.17383 c -1.496,-0.012 -2.75584,0.90751 -3.47851,1.96484 -2.15467,3.1864 -2.60016,8.63194 -2.66016,14.76367 0,0.63907 0.0121,1.28364 0.0254,1.93164 l -0.11328,0 c -5.57333,0.1176 -9.88019,4.6984 -13.49219,8.82227 -1.788,2.09067 -3.3742,4.15349 -4.6582,5.62695 -0.22533,0.25987 -0.4392,0.50107 -0.64453,0.7168 0.37467,-1.312 1.00707,-3.10948 1.67773,-4.88281 1.056,-2.95574 2.19714,-5.96005 2.23047,-8.53711 -0.005,-0.81614 -0.11871,-1.66296 -0.60937,-2.47656 -0.47867,-0.82494 -1.44439,-1.44059 -2.40039,-1.56446 -0.232,-0.0417 -0.47612,-0.0508 -0.68946,-0.0508 -2.23066,0.0583 -3.95587,1.37119 -5.67187,2.93945 -0.40133,0.3864 -0.8026,0.79085 -1.19727,1.21485 0.41067,-1.3224 0.68275,-2.48287 0.71875,-3.375 -0.0547,-0.37974 0.12381,-1.2447 -1.13086,-2.04883 -0.264,-0.15573 -0.69034,-0.21796 -0.90234,-0.20703 -1.29333,0.12907 -1.50122,0.56832 -2.08789,0.95898 -1.70667,1.44427 -4.27133,4.46573 -6.75,7.2168 -0.82667,0.92653 -1.63147,1.81245 -2.35547,2.56445 0.39333,-1.52706 0.94453,-3.37825 1.50586,-5.04492 1.012,-3.06147 2.018,-5.75409 2.11133,-6.00195 0.21467,-0.5532 0.14583,-1.17457 -0.1875,-1.6543 0,-0.006 -0.004,-0.004 -0.004,-0.008 -0.003,-0.003 -0.006,-0.007 -0.0117,-0.0117 -0.10933,-0.15987 -0.24882,-0.30437 -0.41015,-0.41797 -2.53334,-2.0708 -5.4294,-3.01177 -8.30274,-3.00391 -6.4,0.0511 -12.52129,4.24541 -17.39062,9.375 -0.676,0.71992 -0.63992,1.85282 0.0801,2.52735 0.716,0.67187 1.84486,0.64161 2.51953,-0.0781 1.72533,-1.84693 3.61974,-3.50526 5.5664,-4.84179 -0.75466,1.62453 -1.09499,3.36666 -1.09765,5 0.0333,2.5136 0.72777,4.98791 2.89843,6.32031 0.63472,0.36507 1.34806,0.5293 2.0254,0.5293 1.98266,-0.0468 3.55985,-1.1177 5.11718,-2.39063 0.82667,-0.69627 1.64426,-1.49819 2.4336,-2.34765 -0.54534,1.91719 -0.94147,3.68381 -0.9668,5.00781 0.0693,0.5676 -0.13184,1.4597 1.16016,2.38476 0.352,0.20667 0.72734,0.27344 1.02734,0.27344 1.18667,-0.0943 1.54339,-0.53129 2.13672,-0.92969 1.852,-1.46573 4.45307,-4.49665 6.92773,-7.26172 0.40267,-0.45373 0.79631,-0.88956 1.18164,-1.3125 -0.47466,1.336 -1.02345,2.79702 -1.57812,4.14649 -1.512,3.80667 -3.01677,7.27156 -3.02344,7.2793 -0.37867,0.87506 -0.009,1.89312 0.8457,2.31445 0.85734,0.41867 1.88961,0.0917 2.34961,-0.74414 0.004,-0.007 2.1293,-3.84866 4.89063,-7.6836 1.376,-1.912 2.91761,-3.80789 4.34961,-5.15429 1.41466,-1.38014 2.77865,-2.03679 3.22265,-1.97266 0.0373,0 0.064,-2.3e-4 0.084,0.004 l 0,0.006 c 0.0293,0.0984 0.0509,0.27579 0.0469,0.51953 0.0347,1.42653 -0.94238,4.45298 -2.01171,7.31445 -1.04405,2.95147 -2.17243,5.62599 -2.23243,7.86719 0.005,0.4828 0.0543,1.00169 0.32227,1.56836 0.25333,0.56666 0.85162,1.13896 1.51562,1.33789 0.28134,0.0933 0.56627,0.13086 0.82227,0.13086 1.18133,-0.0428 1.86421,-0.58248 2.54687,-1.11328 1.628,-1.376 3.4228,-3.73887 5.4668,-6.23047 0.11733,4.2276 2.0342,8.10793 5.51953,9.16406 0.41867,0.1 0.83872,0.15039 1.24805,0.15039 2.70267,-0.052 4.76135,-1.84575 6.55469,-4.12695 0.24933,-0.32507 0.48842,-0.66509 0.73242,-1.01563 0.152,0.61974 0.31309,1.20358 0.48242,1.73438 0.57867,1.49426 0.77982,2.60581 2.28516,3.54687 0.62,0.312 1.30298,0.47071 1.95898,0.47071 2.532,-0.0933 3.97724,-1.85911 5.00391,-3.21485 1.02133,-1.41866 1.58776,-2.74801 1.62109,-2.81054 0.39333,-0.9052 -0.0224,-1.95193 -0.92773,-2.34766 -0.896,-0.39227 -1.95309,0.0206 -2.34375,0.92578 0,0 -0.0977,0.2355 -0.32032,0.64844 -0.32533,0.6188 -0.89001,1.55946 -1.52734,2.25 -0.63867,0.7224 -1.26586,1.02002 -1.50586,0.98242 -0.072,-9.3e-4 -0.14033,-0.008 -0.23633,-0.041 -0.38666,-0.55893 -1.28878,-3.43111 -1.80078,-6.89257 3.47867,-7.24534 5.79966,-16.80516 5.84766,-23.21289 -0.008,-1.85214 -0.18414,-3.45307 -0.74414,-4.82227 -0.484,-1.3396 -1.84104,-2.70486 -3.59571,-2.66992 z m 0,3.5664 0.0215,0 c 0.15867,0.003 0.81595,1.53512 0.75195,3.92579 0.008,4.04626 -1.20147,10.16425 -3.10547,15.76171 -0.156,-2.16666 -0.24023,-4.38632 -0.24023,-6.52539 0,-3.88226 0.29645,-7.52082 0.92578,-10.01562 0.30933,-1.24373 0.71565,-2.18943 1.07031,-2.67383 0.388,-0.49573 0.48017,-0.45386 0.57617,-0.47266 z m 168.86329,3.50196 c -0.94134,0 -1.833,0.34086 -2.625,0.88086 -1.65734,1.05213 -2.59326,2.83304 -2.5586,4.55078 0.0733,2.9572 2.00336,5.45753 4.30469,7.48047 1.07067,0.8932 2.24227,1.69291 3.46094,2.30078 -0.0693,3 -0.48412,6.02313 -1.18946,8.30273 -0.75733,2.6032 -2.00042,3.87404 -2.48047,3.82617 -0.076,0.0109 -0.14821,0.0137 -0.18554,0.0137 -0.264,-0.007 -0.47656,-0.0557 -0.97656,-0.67969 -1.53467,-1.8724 -2.68158,-7.83787 -4.01758,-13.10547 -0.21067,-0.78813 -0.934,-1.33573 -1.75,-1.32227 -0.82,0.008 -1.52427,0.57767 -1.71094,1.375 -0.40533,1.74947 -0.86709,2.94861 -1.23242,3.55274 -0.0893,0.14907 -0.16976,0.25798 -0.23242,0.33398 -0.67867,-0.56773 -2.48317,-3.55288 -3.8125,-7.86328 -0.28267,-0.85466 -1.14992,-1.35893 -2.03125,-1.18554 -0.88134,0.16773 -1.4936,0.97096 -1.4336,1.86523 0.10667,1.6656 0.52735,5.61313 0.52735,9.5918 0.0427,2.38386 -0.19623,4.80751 -0.60157,6.53711 -0.008,-0.0203 -0.0141,-0.0463 -0.0234,-0.0703 -0.572,-1.6864 -1.23717,-3.18116 -2.0625,-4.38476 -0.82267,-1.15107 -1.87796,-2.28411 -3.64063,-2.33985 -0.856,-0.008 -1.66887,0.35818 -2.29687,0.89258 -0.08,0.0109 -0.16024,0.034 -0.24024,0.0606 -2.87866,0.99627 -4.50374,3.58159 -5.5664,6.43945 -1.588,4.3344 -2.08166,9.85072 -2.45899,14.42578 -0.13467,1.65214 -0.25352,3.181 -0.37891,4.44922 -0.024,-0.0693 -0.0444,-0.14244 -0.0684,-0.21484 -0.816,-2.45983 -1.69387,-5.71668 -2.64454,-8.42188 -0.48,-1.36146 -0.97059,-2.58819 -1.55859,-3.59179 -0.60133,-0.92294 -1.227,-2.06482 -3.01367,-2.19922 -0.33333,-0.003 -0.6779,0.0701 -0.97656,0.1914 -1.108,0.48534 -1.58024,1.31944 -1.98829,2.12891 -0.28666,0.63333 -0.53285,1.35359 -0.74218,2.15039 -0.23734,-0.64107 -0.51996,-1.23397 -0.89063,-1.77344 -0.508,-0.75626 -1.43313,-1.58913 -2.73047,-1.59179 -0.17333,0 -0.34366,0.0129 -0.48632,0.041 -2.076,0.5104 -2.95643,2.01869 -3.8711,3.76563 -0.0267,-0.2188 -0.0557,-0.42762 -0.0957,-0.63282 -0.212,-0.72813 -0.24773,-1.67573 -1.65039,-2.39453 -0.31067,-0.1224 -0.65341,-0.18382 -0.94141,-0.17968 -1.74133,0.13853 -2.46249,1.08087 -3.42383,2.00586 -2.64933,2.88133 -5.45404,8.03179 -5.49804,8.09179 -0.47734,0.86402 -0.16354,1.94544 0.70312,2.41992 0.85734,0.47864 1.93992,0.16589 2.41992,-0.6914 l -0.008,0 c 0.007,-0.012 1.24205,-2.24526 2.7461,-4.45313 0.74399,-1.1068 1.55928,-2.19838 2.25,-2.94531 0.0107,-0.003 0.0129,-0.0138 0.0195,-0.0195 0.0107,0.2588 0.019,0.53398 0.0137,0.83398 0.0133,5.16254 -1.66848,15.21237 -1.75781,15.79102 -0.005,0.0172 -0.008,0.0273 -0.008,0.0273 -0.16266,0.96146 0.48665,1.88086 1.44532,2.05274 0.10933,0.0214 0.21569,0.0273 0.31835,0.0273 0.84139,0 1.59134,-0.60079 1.75,-1.45703 0.003,-0.013 0.89087,-4.81875 2.26954,-9.67969 0.684,-2.42712 1.49807,-4.86442 2.33007,-6.62695 0.41867,-0.88013 0.84093,-1.58777 1.1836,-2.00391 0.0707,-0.0828 0.1314,-0.15569 0.1914,-0.21289 0.788,1.23427 1.59709,5.71046 1.84375,9.57031 0.31734,4.11094 0.31641,7.76771 0.31641,7.78125 0,0.46823 0.19134,0.92968 0.52734,1.25782 0.328,0.33333 0.78706,0.52343 1.26172,0.52343 0.368,0 0.72158,-0.11224 1.01758,-0.32421 0.0853,-0.0615 0.16166,-0.12578 0.23633,-0.19922 0.33867,-0.33438 0.52344,-0.78178 0.52344,-1.25782 0,-0.0135 10e-4,-4.7207 0.39453,-9.56445 0.19466,-2.42289 0.48891,-4.87593 0.90625,-6.69726 0.15066,-0.67347 0.32161,-1.25998 0.48828,-1.70118 0.82933,1.58387 1.93079,5.04742 2.82812,8.13282 0.56267,1.86406 1.10388,3.63945 1.67188,5.04882 0.292,0.70834 0.57241,1.32188 0.95508,1.875 0.37733,0.49323 0.87032,1.26653 2.20898,1.35352 0.416,0 0.76072,-0.12434 0.99805,-0.23633 1.376,-0.92968 1.3631,-1.77121 1.64844,-2.67383 0.648,-2.97448 0.72993,-8.42463 1.44726,-13.69922 0.63067,1.57619 1.4825,3.03686 2.42383,4.31446 2.06,2.64373 4.32414,4.67383 7.10547,4.79883 0.80667,0.0135 1.69305,-0.2562 2.37305,-0.82032 1.8,-1.6828 1.94867,-3.98326 2.02734,-6.625 -0.007,-1.78386 -0.19764,-3.73831 -0.54297,-5.67578 0.14533,-0.1276 0.28206,-0.2685 0.41406,-0.41797 2.23467,-2.73333 2.39204,-6.976 2.47071,-11.21093 0,-0.2172 7.1e-4,-0.43035 -0.002,-0.64649 0.80134,1.0256 1.76153,1.78925 3.26953,1.88672 1.15734,-0.009 2.04555,-0.62013 2.68555,-1.39453 0.41867,1.74267 0.85386,3.44909 1.36719,4.98242 0.52133,1.5468 1.11266,2.93545 1.97265,4.08399 0.82005,1.1276 2.16646,2.10757 3.81446,2.0957 0.272,0 0.53458,-0.0271 0.78125,-0.0723 3,-0.66 4.33563,-3.3508 5.29297,-6.2832 0.74933,-2.44267 1.17197,-5.31528 1.30664,-8.22461 0.348,0.0427 0.68715,0.0704 1.03515,0.0762 1.33734,0.0131 2.7858,-0.42009 3.8418,-1.49609 1.052,-1.07867 1.59069,-2.60666 1.69336,-4.40039 0.0533,-0.9824 -0.70031,-1.82708 -1.68164,-1.88281 -0.97867,-0.0588 -1.82486,0.69191 -1.88086,1.67578 -0.0747,1.25053 -0.40778,1.82751 -0.67578,2.10351 -0.27467,0.26667 -0.61554,0.42444 -1.29688,0.4375 -0.29733,0.009 -0.63776,-0.0333 -1.00976,-0.11719 -0.1,-2.80159 -0.46568,-5.47157 -1.15235,-7.6621 -0.41733,-1.29854 -0.92812,-2.43806 -1.68945,-3.38086 -0.73733,-0.92654 -1.90835,-1.70602 -3.29101,-1.69922 z m 13.68359,0.0937 c -0.13991,-0.0114 -0.28112,-0.0112 -0.42383,0.002 -0.1631,0.015 -0.3274,0.0465 -0.49023,0.0957 -1.304,0.3984 -2.03796,1.77329 -1.64063,3.07422 0.39867,1.3052 1.77422,2.03796 3.07422,1.64063 1.30267,-0.39587 2.03734,-1.76937 1.63867,-3.07617 -0.30114,-0.99409 -1.17884,-1.65667 -2.1582,-1.73633 z m -270.55859,0.98828 c -0.296,3.75787 -0.5216,7.27294 -0.9336,10.13281 -0.328,2.3428 -0.80672,4.24137 -1.38672,5.33203 -0.65066,1.11867 -0.94956,1.25994 -1.60156,1.29688 -0.13067,0 -0.28794,-0.0141 -0.47461,-0.0449 -2.216,-0.59054 -2.38225,-1.12859 -2.54492,-2.85352 -0.048,-2.4052 1.85267,-6.5576 4.25,-10.14453 0.86133,-1.3172 1.79141,-2.58795 2.69141,-3.71875 z m -83.361332,1.57226 c -0.03654,1.25987 -0.215104,2.31716 -0.470704,2.89063 -0.371466,0.6812 -0.309013,0.55217 -0.607422,0.60937 -0.146933,0 -0.397873,-0.0333 -0.74414,-0.16406 -0.393333,-0.14013 -0.618977,-0.28621 -0.714844,-0.36328 0.0308,-0.10253 0.115284,-0.30633 0.31836,-0.5918 0.401066,-0.64373 1.197407,-1.46366 2.21875,-2.38086 z m 340.236332,0.90821 c 0.0693,0.008 0.17391,-0.0125 0.53125,0.39844 0.84133,0.91719 1.62959,3.73421 1.93359,7.04101 -0.35733,-0.24787 -0.70272,-0.52024 -1.02539,-0.80664 -1.908,-1.57707 -3.12598,-3.67314 -3.05664,-4.76367 0.036,-0.624 0.14785,-0.98985 0.97851,-1.58985 0.384,-0.25573 0.57734,-0.27929 0.63868,-0.27929 z m -218,3.41015 c 1.17466,0 2.56173,0.21386 4.17773,0.72266 -0.8,1.15787 -1.93032,2.72848 -3.20898,4.29102 -1.24,1.52546 -2.62325,3.0333 -3.89258,4.0957 -1.25734,1.08907 -2.45017,1.59971 -2.82617,1.55078 -0.136,-0.004 -0.18786,-0.0201 -0.25586,-0.0586 -0.392,-0.13187 -1.13819,-1.42301 -1.10352,-3.22461 0.108,-3.45987 1.96938,-7.36496 7.10938,-7.37695 z m 65.65234,2.5918 c -3.556,0.14533 -6.6597,1.89286 -7.95703,4.38086 -0.4,0.89733 0.008,1.95156 0.9082,2.35156 0.896,0.3984 1.95156,-0.0102 2.35156,-0.91015 l -0.004,0 c 0.012,-0.45574 2.7305,-2.40315 4.70117,-2.25782 0.49733,0.005 0.94012,0.0853 1.32812,0.25196 0.032,0.14786 0.073,0.41899 0.0703,0.76953 0.0267,2.05306 -1.13012,6.22811 -2.32618,9.65625 -1.18799,3.46093 -2.375,6.29203 -2.375,6.29883 -0.37599,0.9 0.0452,1.94497 0.94922,2.32617 0.89734,0.38813 1.94208,-0.028 2.33008,-0.93164 0,0 0.001,-0.006 0.008,-0.0176 0.003,-0.003 0.002,-0.008 0.008,-0.0176 0.18933,-0.43173 1.95011,-4.40617 4.30078,-8.35937 1.23733,-2.088 2.63923,-4.15603 3.97656,-5.6211 1.32667,-1.50413 2.61792,-2.17515 3.03125,-2.10742 l 0.0312,0 c 0.228,0.0656 0.10266,-0.0279 0.22266,0.10547 0.10133,0.14947 0.24699,0.67834 0.23633,1.44141 0.0213,2.01866 -0.86435,5.32473 -1.79102,7.98046 -0.916,2.67614 -1.83008,4.74343 -1.83008,4.7461 -0.38933,0.8896 2.4e-4,1.9227 0.87891,2.33203 0.87466,0.41093 1.92347,0.0425 2.35547,-0.82422 0.003,-0.006 1.83159,-3.71346 4.18359,-7.40039 1.168,-1.8396 2.46816,-3.6676 3.66016,-4.95313 0.91333,-1.04786 1.81612,-1.59178 2.18945,-1.74804 0.007,0.0667 0.01,0.14241 0.01,0.23828 0.0401,1.30053 -0.97474,4.28115 -2.08007,7.00781 -1.088,2.852 -2.2507,5.21795 -2.33203,7.28321 -0.0467,0.57759 0.21796,1.84116 1.44336,2.35156 0.32399,0.1256 0.62275,0.1582 0.85742,0.1582 1.112,-0.0573 1.65199,-0.48702 2.36132,-0.92969 1.77206,-1.26146 4.21386,-3.75306 6.50586,-6.28906 -0.48266,1.8532 -0.81789,3.7567 -0.83789,5.47656 -0.005,2.03587 0.4937,4.29937 2.56836,5.50977 0.604,0.34533 1.30395,0.52699 1.97461,0.52539 2.17734,-0.0735 3.65578,-1.44625 5.03711,-2.97852 0.17467,-0.2 0.34186,-0.40288 0.50586,-0.61328 -0.14,1.03334 -0.22575,2.00834 -0.23242,2.875 0.072,1.5068 0.026,3.28386 2.05664,4.32813 0.37733,0.14893 0.77148,0.21507 1.13281,0.21094 1.83334,-0.0959 2.952,-1.08951 4.36133,-2.18165 0.23067,-0.2016 0.46818,-0.41206 0.71484,-0.63085 -0.0187,0.20519 -0.0254,0.41168 -0.0254,0.61328 0.0293,3.45986 1.96895,6.32032 4.59961,7.49218 0.68267,0.28803 1.40519,0.40625 2.11719,0.40625 2.804,-0.0984 5.81222,-1.64778 8.82422,-3.92382 -0.67867,3.23333 -1.07632,5.85181 -1.09766,7.10546 0.003,0.22812 0.006,0.43165 0.0723,0.75196 0.092,0.20364 0.0911,1.04622 1.45508,1.49414 0.27866,0.0453 0.38405,0.0391 0.38672,0.0391 1.19066,-0.11459 1.34237,-0.59518 1.5957,-0.79101 0.69867,-0.84693 1.20811,-1.9681 2.05078,-3.57227 1.19067,-2.34531 2.76789,-5.43508 4.44922,-7.84961 1.636,-2.4896 3.55813,-3.92557 4.2168,-3.77344 0.08,0 0.13679,0.008 0.21679,0.0234 0.312,0.0963 0.27564,0.084 0.43164,0.32617 0.132,0.24694 0.26706,0.8352 0.26172,1.64453 0.0453,3.46147 -2.14188,9.50118 -2.19922,13.43555 0.0187,1.2 0.15922,2.65521 1.56055,3.65625 0.696,0.46927 1.51464,0.74023 2.30664,0.74023 l 0.0293,0 c 2.39466,-0.1 3.6837,-1.76575 4.5957,-3.00585 0.904,-1.3011 1.39112,-2.50494 1.42578,-2.57422 0.37467,-0.90678 -0.0535,-1.9491 -0.96679,-2.32618 -0.9094,-0.375 -1.95089,0.0538 -2.32422,0.9668 -0.003,0 -0.0881,0.20365 -0.27344,0.57031 -0.27467,0.55312 -0.76745,1.38823 -1.30078,1.98829 -0.54267,0.63437 -1.05492,0.84999 -1.15625,0.8125 -0.052,-0.003 -0.11648,0.002 -0.25781,-0.0781 -0.007,-0.0203 -0.0122,-0.0452 -0.0176,-0.0801 -0.0307,-0.13854 -0.0613,-0.37096 -0.0586,-0.66992 -0.0587,-2.76927 2.15389,-8.96101 2.19922,-13.43555 -0.007,-1.1224 -0.12853,-2.2207 -0.64453,-3.25976 -0.496,-1.0396 -1.56884,-1.94057 -2.82617,-2.1875 -0.32,-0.076 -0.66462,-0.11133 -1.00195,-0.11133 -2.29067,0.0495 -3.95559,1.473 -5.43165,3.0918 -1.33733,1.524 -2.55405,3.39548 -3.63671,5.27148 0.16666,-0.7104 0.34263,-1.44275 0.52929,-2.18555 0.69467,-0.66346 1.38179,-1.34718 2.06446,-2.05078 2.47333,-2.6188 4.71242,-5.42772 6.37109,-8.04492 1.63733,-2.64533 2.77622,-4.98174 2.82422,-7.24414 0.11067,-1.4844 -0.93405,-3.32745 -2.63672,-3.76172 -0.33733,-0.1016 -0.69593,-0.15625 -1.05859,-0.15625 -2.90267,0.22653 -4.23333,2.54273 -5.72266,5.16406 -1.97067,3.83854 -3.72873,9.22933 -5.05273,14.25586 -0.312,0.28547 -0.62225,0.56775 -0.93165,0.84375 -3.62533,3.27614 -7.52881,5.43789 -9.27148,5.33789 -0.32667,0 -0.55032,-0.0527 -0.70898,-0.12304 -1.144,-0.45464 -2.46941,-2.17849 -2.44141,-4.21289 0.003,-2.6084 1.99871,-6.47081 10.74805,-9.21094 0.81333,-0.24787 1.338,-1.04494 1.25,-1.88867 -0.0893,-0.84427 -0.7659,-1.51225 -1.61524,-1.58985 -0.248,-0.0224 -0.49242,-0.0332 -0.73242,-0.0332 -4.684,0.0693 -8.56995,3.26491 -11.86328,6.12891 -1.63333,1.44533 -3.11436,2.86936 -4.31836,3.86523 -0.6,0.5 -1.13196,0.88958 -1.5293,1.11524 -0.0467,0.0265 -0.0927,0.0529 -0.13672,0.0742 -0.028,-0.2104 -0.0476,-0.48878 -0.0449,-0.80078 -0.0133,-2.25626 0.87245,-6.2887 1.78711,-9.61523 0.90667,-3.33694 1.81641,-6.0225 1.81641,-6.0293 0.30933,-0.91973 -0.16631,-1.91081 -1.07031,-2.24414 -0.91334,-0.33493 -1.92206,0.11367 -2.27539,1.01367 -0.004,0.009 -1.4751,3.70306 -3.50977,7.36719 -1.01733,1.83173 -2.17068,3.64572 -3.27734,4.90039 -1.088,1.3084 -2.14971,1.83097 -2.34571,1.75391 -0.0813,0 -0.11413,-0.003 -0.21679,-0.0527 -0.34534,-0.1624 -0.75115,-0.81744 -0.75782,-2.41211 -0.02,-2.3256 0.96543,-5.81645 1.9961,-8.60351 1.01866,-2.80107 2.03906,-4.90899 2.03906,-4.91992 0.39067,-0.812 0.1058,-1.7965 -0.6582,-2.2793 -0.76667,-0.4828 -1.7778,-0.30872 -2.3418,0.39648 -0.005,0.007 -2.83504,3.5298 -5.98438,7.05274 -1.54933,1.7308 -3.17329,3.46185 -4.52929,4.72851 0.356,-0.95626 0.78061,-2.04554 1.22461,-3.11328 1.09733,-2.84786 2.29131,-5.78698 2.33398,-8.32031 0.084,-1.27187 -0.57862,-3.18882 -2.39062,-3.69922 -0.336,-0.1068 -0.68515,-0.14648 -1.00782,-0.14648 -2.136,0.0989 -3.52037,1.43323 -4.98437,2.9375 -0.444,0.48533 -0.88431,1.00588 -1.32031,1.56054 0.0253,-0.34786 0.0455,-0.6901 0.0469,-1.02343 -0.005,-1.10414 -0.1386,-2.17492 -0.69726,-3.18946 -0.53067,-1.03066 -1.75334,-1.85207 -3.0254,-1.9082 -0.11466,-0.009 -0.23931,-0.0137 -0.33398,-0.0137 -2.344,0.0708 -4.04211,1.54878 -5.66211,3.26758 -0.28,0.3068 -0.55684,0.62991 -0.82617,0.96484 0.092,-0.67347 0.14763,-1.31067 0.1543,-1.89453 -0.036,-1.2864 -0.13862,-2.82841 -1.75196,-3.81641 -1.04133,-0.55466 -2.15884,-0.77366 -3.21484,-0.76953 z m -22.45313,6.10742 c 0.16,2.57867 0.4201,5.09677 0.74415,7.38477 -0.82539,1.61973 -1.68936,3.04135 -2.55469,4.16015 -1.5,1.964 -2.939,2.79419 -3.73633,2.74219 -0.13333,0 -0.26163,-0.0151 -0.4043,-0.0469 -0.844,-0.008 -2.89359,-2.69556 -2.79492,-5.7461 0.112,-3.34426 1.71943,-7.0076 8.74609,-8.49414 z m 95.60743,6.64063 c 0.052,0.012 0.0764,0.0233 0.0937,0.0351 0.009,0.0319 0.0378,0.13094 0.0351,0.31641 0.048,0.84373 -0.76271,3.00038 -2.27344,5.33984 -0.87999,1.38707 -1.97069,2.88109 -3.19335,4.37696 0.868,-2.59427 1.81877,-4.99508 2.77343,-6.81641 0.61867,-1.18707 1.24762,-2.12068 1.76368,-2.66601 0.25866,-0.27193 0.48304,-0.43892 0.62304,-0.51758 0.124,-0.0641 0.16974,-0.0684 0.17774,-0.0684 z m 54.94336,0.94726 c 0.17466,0.1376 0.60009,0.54356 0.99609,1.25196 0.64933,1.08386 1.26758,2.70535 1.76758,4.52148 -0.704,-0.2068 -1.50506,-0.64016 -2.15039,-1.22656 -0.97734,-0.85627 -1.53891,-1.95764 -1.51758,-2.75196 0.0147,-0.53586 0.16264,-1.0345 0.80664,-1.70117 0.0373,-0.0376 0.0697,-0.0656 0.0977,-0.0937 z m -3.74805,4.66992 c 0.49333,0.98285 1.20276,1.83453 1.99609,2.54493 1.49467,1.30773 3.33703,2.21922 5.31836,2.26562 0.256,1.57347 0.40387,3.12669 0.39453,4.48242 0.003,1.12814 -0.0955,2.11766 -0.27148,2.81446 -0.16533,0.70946 -0.43632,1.06828 -0.45899,1.06054 -0.0107,0 0.0365,7.4e-4 -0.10351,0.0137 -0.48267,0.1204 -2.66948,-1.1295 -4.24414,-3.3711 -1.644,-2.19066 -2.88843,-5.14365 -2.8711,-7.81445 0.007,-0.6824 0.0762,-1.34818 0.24024,-1.9961 z" transform="matrix(7.5000002,0,0,-7.5000002,0,3120.4001)" id="path14" style="fill:#1b1718;fill-opacity:1;fill-rule:nonzero;stroke:none"/><path d="m 2800.18,1794.34 c -7.22,1.56 -11.82,8.68 -10.23,15.87 5.88,25.96 28.63,37.09 48.59,43.47 20.5,6.49 42.33,10.06 53.84,15.66 8.01,4.19 8.44,5.7 8.7,8.46 0.18,7.37 6.35,13.21 13.72,12.99 7.36,-0.19 13.21,-6.33 12.99,-13.73 -0.07,-11.87 -7.39,-21.82 -15.5,-27.09 -8.19,-5.6 -17.47,-8.68 -27.14,-11.49 -19.23,-5.32 -40.74,-9.34 -54.03,-16.67 -8.98,-5.05 -13.33,-9.79 -15.04,-17.25 -1.37,-6.24 -6.91,-10.54 -13.04,-10.54 -0.95,0 -1.91,0.09 -2.86,0.32" id="path48" style="fill:#1b1718;fill-opacity:1;fill-rule:nonzero;stroke:none"/><path d="m 1207.82,2965.28 c 0,0 31.68,38.11 49.01,10.39 17.31,-27.73 -30.51,-49.7 -30.51,-49.7" id="path78" style="fill:#1b1718;fill-opacity:1;fill-rule:nonzero;stroke:none"/><path d="m 2628.24,2065.48 v 8.61 l -0.03,-8.61 z" id="path80" style="fill:#231f20;fill-opacity:1;fill-rule:nonzero;stroke:none"/><path d="m 975.875,1859.49 c -6.945,63.3 -14.211,141.77 -21.793,235.44 -14.332,-107.56 -23.594,-186.02 -27.82,-235.44 z m 77.095,359.75 83.36,-559.51 H 988.121 l -7.879,100.28 h -52.976 l -7.989,-100.28 H 769.043 l 74.219,559.51 h 209.708" id="path82" style="fill:#ffffff;fill-opacity:1;fill-rule:nonzero;stroke:none"/><path d="m 1160.81,2219.24 h 246.71 v -112.23 h -101.07 v -105.85 h 89.93 v -106.64 h -89.93 v -234.78 h -145.64 v 559.5" id="path84" style="fill:#ffffff;fill-opacity:1;fill-rule:nonzero;stroke:none"/><path d="m 1735.9,2219.24 v -112.23 h -86.74 v -447.27 h -145.64 v 447.27 h -85.95 v 112.23 h 318.33" id="path86" style="fill:#ffffff;fill-opacity:1;fill-rule:nonzero;stroke:none"/><path d="m 1768.26,2219.24 h 242.73 v -112.23 h -97.09 v -105.85 h 90.72 v -106.64 h -90.72 v -122.57 h 106.63 v -112.21 h -252.27 v 559.5" id="path88" style="fill:#ffffff;fill-opacity:1;fill-rule:nonzero;stroke:none"/><path d="m 2207.75,2123.73 v -124.96 c 16.47,0 28.05,2.23 34.65,6.76 6.62,4.49 9.93,19.16 9.93,43.91 v 30.89 c 0,17.79 -3.22,29.5 -9.59,35.07 -6.39,5.52 -18.04,8.33 -34.99,8.33 m -145.64,95.51 h 103.21 c 68.79,0 115.36,-2.67 139.71,-7.95 24.35,-5.33 44.18,-18.86 59.56,-40.64 15.35,-21.8 23.03,-56.55 23.03,-104.27 0,-43.56 -5.42,-72.85 -16.24,-87.83 -10.82,-14.97 -32.13,-23.98 -63.9,-26.96 28.77,-7.14 48.11,-16.69 58.02,-28.69 9.91,-11.95 16.08,-22.94 18.49,-32.96 2.42,-10.02 3.63,-37.58 3.63,-82.71 v -147.49 h -135.29 v 185.92 c 0,29.96 -2.38,48.51 -7.13,55.64 -4.8,7.15 -17.24,10.73 -37.45,10.73 v -252.29 h -145.64 v 559.5" id="path90" style="fill:#ffffff;fill-opacity:1;fill-rule:nonzero;stroke:none"/><path d="m 795.309,1528 h 242.741 v -112.22 h -97.093 v -105.85 h 90.723 V 1203.3 H 940.957 V 1080.75 H 1047.59 V 968.52 H 795.309 V 1528" id="path92" style="fill:#ffffff;fill-opacity:1;fill-rule:nonzero;stroke:none"/><path d="M 1234.81,968.52 H 1089.17 V 1528 h 145.64 V 968.52" id="path94" style="fill:#ffffff;fill-opacity:1;fill-rule:nonzero;stroke:none"/><path d="m 1627.18,1321.87 h -145.65 v 50.94 c 0,32.1 -1.39,52.19 -4.16,60.28 -2.76,8.09 -9.32,12.15 -19.66,12.15 -8.97,0 -15.09,-3.47 -18.3,-10.39 -3.23,-6.9 -4.83,-24.66 -4.83,-53.26 v -268.71 c 0,-25.14 1.6,-41.67 4.78,-49.64 3.19,-7.96 9.56,-11.94 19.15,-11.94 10.46,0 17.62,4.5 21.36,13.45 3.76,8.98 5.64,26.45 5.64,52.44 v 66.22 h -28.64 v 85.15 h 170.31 V 968.52 h -91.92 l -13.54,40.09 c -9.88,-17.27 -22.4,-30.251 -37.48,-38.962 -15.09,-8.699 -32.87,-13.058 -53.36,-13.058 -24.4,0 -47.25,5.961 -68.55,17.82 -21.31,11.879 -37.48,26.57 -48.52,44.09 -11.06,17.5 -17.99,35.9 -20.73,55.16 -2.77,19.26 -4.14,48.12 -4.14,86.64 v 166.28 c 0,53.49 2.86,92.34 8.63,116.53 5.77,24.21 22.31,46.42 49.64,66.58 27.31,20.17 62.66,30.25 106,30.25 42.66,0 78.04,-8.77 106.18,-26.32 28.12,-17.54 46.44,-38.34 54.98,-62.47 8.54,-24.1 12.81,-59.13 12.81,-105.06 v -24.22" id="path96" style="fill:#ffffff;fill-opacity:1;fill-rule:nonzero;stroke:none"/><path d="M 2017.85,1528 V 968.52 h -145.64 v 234.78 h -43.78 V 968.52 H 1682.79 V 1528 h 145.64 v -200.56 h 43.78 V 1528 h 145.64" id="path98" style="fill:#ffffff;fill-opacity:1;fill-rule:nonzero;stroke:none"/><path d="m 2369.1,1528 v -112.22 h -86.76 V 968.52 h -145.65 v 447.26 h -85.93 V 1528 h 318.34" id="path100" style="fill:#ffffff;fill-opacity:1;fill-rule:nonzero;stroke:none"/><path d="m 931.547,2944.95 c 0,-4.96 -3.984,-8.9 -8.887,-8.9 -4.965,0 -8.91,3.94 -8.91,8.9 0,4.87 3.945,8.9 8.91,8.9 4.903,0 8.887,-4.03 8.887,-8.9" id="path102" style="fill:#ffffff;fill-opacity:1;fill-rule:nonzero;stroke:none"/><path d="m 424.125,2845.14 c 0,-4.94 -4.059,-9.03 -9.027,-9.03 -5.032,0 -9.059,4.09 -9.059,9.03 0,5.04 4.027,9.09 9.059,9.09 4.968,0 9.027,-4.05 9.027,-9.09" id="path104" style="fill:#ffffff;fill-opacity:1;fill-rule:nonzero;stroke:none"/><path d="m 356.176,2300.96 c 0.594,-4.57 -2.629,-8.8 -7.235,-9.43 -4.632,-0.62 -8.836,2.67 -9.433,7.21 -0.621,4.62 2.582,8.85 7.215,9.48 4.605,0.62 8.836,-2.65 9.453,-7.26" id="path106" style="fill:#ffffff;fill-opacity:1;fill-rule:nonzero;stroke:none"/><path d="m 332.719,2282.62 c 0.605,-4.61 -2.625,-8.8 -7.239,-9.44 -4.574,-0.62 -8.824,2.6 -9.421,7.23 -0.59,4.59 2.632,8.83 7.238,9.42 4.594,0.6 8.82,-2.63 9.422,-7.21" id="path108" style="fill:#ffffff;fill-opacity:1;fill-rule:nonzero;stroke:none"/><path d="m 1136.07,2895.68 c 0,-4.51 -3.64,-8.15 -8.14,-8.15 -4.53,0 -8.15,3.64 -8.15,8.15 0,4.48 3.62,8.2 8.15,8.2 4.5,0 8.14,-3.72 8.14,-8.2" id="path110" style="fill:#ffffff;fill-opacity:1;fill-rule:nonzero;stroke:none"/></g></g></svg>